{
  "accessors": [
    {
      "bufferView": 2,
      "componentType": 5126,
      "count": 1218,
      "max": [
        0.0004999997327104211,
        0.0009995430009439588,
        0.0005495857330970466
      ],
      "min": [
        -0.0012497756397351623,
        -4.566907989556057e-07,
        -0.0005025463178753853
      ],
      "type": "VEC3"
    },
    {
      "bufferView": 2,
      "byteOffset": 14616,
      "componentType": 5126,
      "count": 1218,
      "max": [
        1.0,
        1.0,
        1.0
      ],
      "min": [
        -1.0,
        -1.0,
        -1.0
      ],
      "type": "VEC3"
    },
    {
      "bufferView": 1,
      "componentType": 5126,
      "count": 1218,
      "max": [
        0.9990000128746033,
        0.9953692555427551
      ],
      "min": [
        0.0010000000474974513,
        0.0010000000474974513
      ],
      "type": "VEC2"
    },
    {
      "bufferView": 0,
      "componentType": 5125,
      "count": 2736,
      "type": "SCALAR"
    }
  ],
  "asset": {
    "extras": {
      "author": "ningss (https://sketchfab.com/ningss)",
      "license": "CC-BY-4.0 (http://creativecommons.org/licenses/by/4.0/)",
      "source": "https://sketchfab.com/3d-models/x6060-0e9ef3bb3c764bc29883d50a7bac8e7d",
      "title": "x6060"
    },
    "generator": "Sketchfab-14.32.1",
    "version": "2.0"
  },
  "bufferViews": [
    {
      "buffer": 0,
      "byteLength": 10944,
      "name": "floatBufferViews",
      "target": 34963
    },
    {
      "buffer": 0,
      "byteLength": 9744,
      "byteOffset": 10944,
      "byteStride": 8,
      "name": "floatBufferViews",
      "target": 34962
    },
    {
      "buffer": 0,
      "byteLength": 29232,
      "byteOffset": 20688,
      "byteStride": 12,
      "name": "floatBufferViews",
      "target": 34962
    }
  ],
  "buffers": [
    {
      "byteLength": 49920,
      "uri": "scene.bin"
    }
  ],
  "images": [
    {
      "uri": "textures/Material_259_baseColor.jpeg"
    }
  ],
  "materials": [
    {
      "name": "Material_259",
      "pbrMetallicRoughness": {
        "baseColorTexture": {
          "index": 0
        },
        "metallicFactor": 0.0,
        "roughnessFactor": 0.858579
      }
    }
  ],
  "meshes": [
    {
      "name": "Object_0",
      "primitives": [
        {
          "attributes": {
            "NORMAL": 1,
            "POSITION": 0,
            "TEXCOORD_0": 2
          },
          "indices": 3,
          "material": 0,
          "mode": 4
        }
      ]
    }
  ],
  "nodes": [
    {
      "children": [
        1
      ],
      "matrix": [
        1.0,
        0.0,
        0.0,
        0.0,
        0.0,
        2.220446049250313e-16,
        -1.0,
        0.0,
        0.0,
        1.0,
        2.220446049250313e-16,
        0.0,
        0.0,
        0.0,
        0.0,
        1.0
      ],
      "name": "Sketchfab_model"
    },
    {
      "children": [
        2
      ],
      "name": "root"
    },
    {
      "children": [
        3
      ],
      "matrix": [
        1.0,
        0.0,
        0.0,
        0.0,
        0.0,
        2.220446049250313e-16,
        1.0,
        0.0,
        0.0,
        -1.0,
        2.220446049250313e-16,
        0.0,
        0.0,
        0.0,
        0.0,
        1.0
      ],
      "name": "GLTF_SceneRootNode"
    },
    {
      "children": [
        4
      ],
      "matrix": [
        -90.0,
        0.0,
        0.0,
        0.0,
        0.0,
        90.0,
        0.0,
        0.0,
        0.0,
        0.0,
        -90.0,
        0.0,
        0.0,
        0.0,
        0.0,
        1.0
      ],
      "name": "X6060_0"
    },
    {
      "children": [
        5
      ],
      "matrix": [
        1.0,
        0.0,
        0.0,
        0.0,
        0.0,
        0.9999999999999867,
        -1.6292068494294545e-07,
        0.0,
        0.0,
        1.6292068494294545e-07,
        0.9999999999999867,
        0.0,
        -0.01600968837738037,
        0.0,
        0.000600959814619273,
        1.0
      ],
      "name": "zhuti_5"
    },
    {
      "children": [
        6
      ],
      "matrix": [
        7.516239166259766,
        0.0,
        0.0,
        0.0,
        0.0,
        13.243233680725098,
        0.0,
        0.0,
        0.0,
        0.0,
        13.243233680725098,
        0.0,
        0.01600968837738037,
        0.0,
        -0.000600959814619273,
        1.0
      ],
      "name": "polySurface3_6"
    },
    {
      "mesh": 0,
      "name": "Object_6"
    }
  ],
  "samplers": [
    {
      "magFilter": 9729,
      "minFilter": 9729,
      "wrapS": 10497,
      "wrapT": 10497
    }
  ],
  "scene": 0,
  "scenes": [
    {
      "name": "Sketchfab_Scene",
      "nodes": [
        0
      ]
    }
  ],
  "textures": [
    {
      "sampler": 0,
      "source": 0
    }
  ]
}
