{
  "accessors": [
    {
      "bufferView": 2,
      "componentType": 5126,
      "count": 139,
      "max": [
        3.886199474334717,
        4.5974016189575195,
        -0.11672930419445038
      ],
      "min": [
        -3.886201858520508,
        -4.597402095794678,
        -13.370555877685547
      ],
      "type": "VEC3"
    },
    {
      "bufferView": 2,
      "byteOffset": 1668,
      "componentType": 5126,
      "count": 139,
      "max": [
        1.0,
        1.0,
        1.0
      ],
      "min": [
        -1.0,
        -1.0,
        -1.0
      ],
      "type": "VEC3"
    },
    {
      "bufferView": 1,
      "componentType": 5126,
      "count": 139,
      "max": [
        0.9977420568466187,
        0.9990000128746033
      ],
      "min": [
        0.0010000000474974513,
        0.0010000000474974513
      ],
      "type": "VEC2"
    },
    {
      "bufferView": 1,
      "byteOffset": 1112,
      "componentType": 5126,
      "count": 139,
      "max": [
        0.9977420568466187,
        0.9990000128746033
      ],
      "min": [
        0.0010000000474974513,
        0.0010000000474974513
      ],
      "type": "VEC2"
    },
    {
      "bufferView": 1,
      "byteOffset": 2224,
      "componentType": 5126,
      "count": 139,
      "max": [
        0.9977420568466187,
        0.9990000128746033
      ],
      "min": [
        0.0010000000474974513,
        0.0010000000474974513
      ],
      "type": "VEC2"
    },
    {
      "bufferView": 0,
      "componentType": 5125,
      "count": 219,
      "type": "SCALAR"
    },
    {
      "bufferView": 2,
      "byteOffset": 3336,
      "componentType": 5126,
      "count": 224,
      "max": [
        3.90524959564209,
        3.446887254714966,
        -0.06280779093503952
      ],
      "min": [
        -3.9056472778320313,
        -4.376312732696533,
        -13.316678047180176
      ],
      "type": "VEC3"
    },
    {
      "bufferView": 2,
      "byteOffset": 6024,
      "componentType": 5126,
      "count": 224,
      "max": [
        1.0,
        1.0,
        1.0
      ],
      "min": [
        -1.0,
        -1.0,
        -1.0
      ],
      "type": "VEC3"
    },
    {
      "bufferView": 1,
      "byteOffset": 3336,
      "componentType": 5126,
      "count": 224,
      "max": [
        0.9990000128746033,
        0.996016263961792
      ],
      "min": [
        0.0010000000474974513,
        0.0010000000474974513
      ],
      "type": "VEC2"
    },
    {
      "bufferView": 1,
      "byteOffset": 5128,
      "componentType": 5126,
      "count": 224,
      "max": [
        147977.703125,
        62700.6328125
      ],
      "min": [
        -141.0,
        -150.0
      ],
      "type": "VEC2"
    },
    {
      "bufferView": 1,
      "byteOffset": 6920,
      "componentType": 5126,
      "count": 224,
      "max": [
        0.9990000128746033,
        0.996016263961792
      ],
      "min": [
        0.0010000000474974513,
        0.0010000000474974513
      ],
      "type": "VEC2"
    },
    {
      "bufferView": 0,
      "byteOffset": 876,
      "componentType": 5125,
      "count": 366,
      "type": "SCALAR"
    }
  ],
  "asset": {
    "extras": {
      "author": "ningss (https://sketchfab.com/ningss)",
      "license": "CC-BY-4.0 (http://creativecommons.org/licenses/by/4.0/)",
      "source": "https://sketchfab.com/3d-models/hc-9-5ed1e77537ef42969548758d9388fbab",
      "title": "hc_9"
    },
    "generator": "Sketchfab-14.15.0",
    "version": "2.0"
  },
  "bufferViews": [
    {
      "buffer": 0,
      "byteLength": 2340,
      "name": "floatBufferViews",
      "target": 34963
    },
    {
      "buffer": 0,
      "byteLength": 8712,
      "byteOffset": 2340,
      "byteStride": 8,
      "name": "floatBufferViews",
      "target": 34962
    },
    {
      "buffer": 0,
      "byteLength": 8712,
      "byteOffset": 11052,
      "byteStride": 12,
      "name": "floatBufferViews",
      "target": 34962
    }
  ],
  "buffers": [
    {
      "byteLength": 19764,
      "uri": "scene.bin"
    }
  ],
  "images": [
    {
      "uri": "textures/hc_1floor_room004_DiffuseMap_baseColor.jpeg"
    },
    {
      "uri": "textures/hc_1floor_room004_DiffuseMap_emissive.jpeg"
    },
    {
      "uri": "textures/hc_1floor_room005_DiffuseMap_baseColor.jpeg"
    },
    {
      "uri": "textures/hc_1floor_room005_DiffuseMap_emissive.jpeg"
    }
  ],
  "materials": [
    {
      "emissiveFactor": [
        1.0,
        1.0,
        1.0
      ],
      "emissiveTexture": {
        "index": 1
      },
      "name": "hc_1floor_room004_DiffuseMap",
      "pbrMetallicRoughness": {
        "baseColorFactor": [
          0.588,
          0.588,
          0.588,
          1.0
        ],
        "baseColorTexture": {
          "index": 0
        },
        "metallicFactor": 0.0
      }
    },
    {
      "emissiveFactor": [
        1.0,
        1.0,
        1.0
      ],
      "emissiveTexture": {
        "index": 3
      },
      "name": "hc_1floor_room005_DiffuseMap",
      "pbrMetallicRoughness": {
        "baseColorFactor": [
          0.588,
          0.588,
          0.588,
          1.0
        ],
        "baseColorTexture": {
          "index": 2
        },
        "metallicFactor": 0.0
      }
    }
  ],
  "meshes": [
    {
      "name": "Object_0",
      "primitives": [
        {
          "attributes": {
            "NORMAL": 1,
            "POSITION": 0,
            "TEXCOORD_0": 2,
            "TEXCOORD_1": 3,
            "TEXCOORD_2": 4
          },
          "indices": 5,
          "material": 0,
          "mode": 4
        }
      ]
    },
    {
      "name": "Object_1",
      "primitives": [
        {
          "attributes": {
            "NORMAL": 7,
            "POSITION": 6,
            "TEXCOORD_0": 8,
            "TEXCOORD_1": 9,
            "TEXCOORD_2": 10
          },
          "indices": 11,
          "material": 1,
          "mode": 4
        }
      ]
    }
  ],
  "nodes": [
    {
      "children": [
        1
      ],
      "matrix": [
        1.0,
        0.0,
        0.0,
        0.0,
        0.0,
        2.220446049250313e-16,
        -1.0,
        0.0,
        0.0,
        1.0,
        2.220446049250313e-16,
        0.0,
        0.0,
        0.0,
        0.0,
        1.0
      ],
      "name": "Sketchfab_model"
    },
    {
      "children": [
        2
      ],
      "name": "root"
    },
    {
      "children": [
        3
      ],
      "matrix": [
        1.0,
        0.0,
        0.0,
        0.0,
        0.0,
        2.220446049250313e-16,
        1.0,
        0.0,
        0.0,
        -1.0,
        2.220446049250313e-16,
        0.0,
        0.0,
        0.0,
        0.0,
        1.0
      ],
      "name": "GLTF_SceneRootNode"
    },
    {
      "children": [
        4,
        6
      ],
      "matrix": [
        0.0,
        0.0,
        0.0393701009452343,
        0.0,
        -0.0393701009452343,
        0.0,
        0.0,
        0.0,
        0.0,
        -0.0393701009452343,
        0.0,
        0.0,
        -2.5708677768707275,
        0.040757209062576294,
        1.3110243082046509,
        1.0
      ],
      "name": "HC9_0"
    },
    {
      "children": [
        5
      ],
      "matrix": [
        1.0,
        0.0,
        0.0,
        0.0,
        0.0,
        1.0,
        0.0,
        0.0,
        0.0,
        0.0,
        1.0,
        0.0,
        -31.415576934814453,
        -62.35824203491211,
        0.1017453670501709,
        1.0
      ],
      "name": "hc_1floor_room004 (1)_1"
    },
    {
      "mesh": 0,
      "name": "Object_5"
    },
    {
      "children": [
        7
      ],
      "matrix": [
        1.0,
        0.0,
        0.0,
        0.0,
        0.0,
        1.0,
        0.0,
        0.0,
        0.0,
        0.0,
        1.0,
        0.0,
        -31.43463134765625,
        -70.40253448486328,
        0.04782462120056152,
        1.0
      ],
      "name": "hc_1floor_room005 (1)_2"
    },
    {
      "mesh": 1,
      "name": "Object_7"
    }
  ],
  "samplers": [
    {
      "magFilter": 9729,
      "minFilter": 9729,
      "wrapS": 10497,
      "wrapT": 10497
    }
  ],
  "scene": 0,
  "scenes": [
    {
      "name": "Sketchfab_Scene",
      "nodes": [
        0
      ]
    }
  ],
  "textures": [
    {
      "sampler": 0,
      "source": 0
    },
    {
      "sampler": 0,
      "source": 1
    },
    {
      "sampler": 0,
      "source": 2
    },
    {
      "sampler": 0,
      "source": 3
    }
  ]
}
