{
  "accessors": [
    {
      "bufferView": 2,
      "componentType": 5126,
      "count": 28,
      "max": [
        0.0664137601852417,
        0.019062450155615807,
        0.06959498673677444
      ],
      "min": [
        -0.06324886530637741,
        -9.689330937590057e-08,
        -0.06959576904773712
      ],
      "type": "VEC3"
    },
    {
      "bufferView": 2,
      "byteOffset": 336,
      "componentType": 5126,
      "count": 28,
      "max": [
        0.9969820380210876,
        4.163791345490608e-06,
        0.8500416874885559
      ],
      "min": [
        -0.8660234808921814,
        -0.00011645364429568872,
        -0.8787646889686584
      ],
      "type": "VEC3"
    },
    {
      "bufferView": 1,
      "componentType": 5126,
      "count": 28,
      "max": [
        0.3260853588581085,
        0.9980079531669617
      ],
      "min": [
        0.0006508692167699337,
        0.0019920319318771362
      ],
      "type": "VEC2"
    },
    {
      "bufferView": 0,
      "componentType": 5125,
      "count": 48,
      "type": "SCALAR"
    },
    {
      "bufferView": 2,
      "byteOffset": 672,
      "componentType": 5126,
      "count": 936,
      "max": [
        0.05525566264986992,
        0.019062716513872147,
        0.05874370038509369
      ],
      "min": [
        -0.055255673825740814,
        -2.4223327343975143e-08,
        -0.05874370038509369
      ],
      "type": "VEC3"
    },
    {
      "bufferView": 2,
      "byteOffset": 11904,
      "componentType": 5126,
      "count": 936,
      "max": [
        0.8725056648254395,
        1.0,
        0.8806595802307129
      ],
      "min": [
        -0.8690663576126099,
        -1.0,
        -0.8715689778327942
      ],
      "type": "VEC3"
    },
    {
      "bufferView": 1,
      "byteOffset": 224,
      "componentType": 5126,
      "count": 936,
      "max": [
        0.9898699522018433,
        0.9990000128746033
      ],
      "min": [
        0.0010000000474974513,
        0.0010000000474974513
      ],
      "type": "VEC2"
    },
    {
      "bufferView": 1,
      "byteOffset": 7712,
      "componentType": 5126,
      "count": 936,
      "max": [
        0.9898699522018433,
        0.9990000128746033
      ],
      "min": [
        0.0010000000474974513,
        0.0010000000474974513
      ],
      "type": "VEC2"
    },
    {
      "bufferView": 0,
      "byteOffset": 192,
      "componentType": 5125,
      "count": 1794,
      "type": "SCALAR"
    },
    {
      "bufferView": 2,
      "byteOffset": 23136,
      "componentType": 5126,
      "count": 96,
      "max": [
        0.022025955840945244,
        0.019062329083681107,
        0.01980481669306755
      ],
      "min": [
        -0.022025955840945244,
        0.0,
        -0.01980481669306755
      ],
      "type": "VEC3"
    },
    {
      "bufferView": 2,
      "byteOffset": 24288,
      "componentType": 5126,
      "count": 96,
      "max": [
        0.8660524487495422,
        1.0,
        0.8662651777267456
      ],
      "min": [
        -0.8667081594467163,
        -1.0,
        -0.8661510944366455
      ],
      "type": "VEC3"
    },
    {
      "bufferView": 1,
      "byteOffset": 15200,
      "componentType": 5126,
      "count": 96,
      "max": [
        0.9921309351921082,
        0.9990000128746033
      ],
      "min": [
        0.0010000000474974513,
        0.0010000000474974513
      ],
      "type": "VEC2"
    },
    {
      "bufferView": 1,
      "byteOffset": 15968,
      "componentType": 5126,
      "count": 96,
      "max": [
        0.9921309351921082,
        0.9990000128746033
      ],
      "min": [
        0.0010000000474974513,
        0.0010000000474974513
      ],
      "type": "VEC2"
    },
    {
      "bufferView": 0,
      "byteOffset": 7368,
      "componentType": 5125,
      "count": 168,
      "type": "SCALAR"
    },
    {
      "bufferView": 2,
      "byteOffset": 25440,
      "componentType": 5126,
      "count": 76,
      "max": [
        0.013273607939481735,
        0.019062329083681107,
        0.01607772521674633
      ],
      "min": [
        -0.013273607939481735,
        0.0,
        -0.016077712178230286
      ],
      "type": "VEC3"
    },
    {
      "bufferView": 2,
      "byteOffset": 26352,
      "componentType": 5126,
      "count": 76,
      "max": [
        0.8664673566818237,
        1.0,
        0.8662186861038208
      ],
      "min": [
        -0.8664625883102417,
        -1.0,
        -0.8664843440055847
      ],
      "type": "VEC3"
    },
    {
      "bufferView": 1,
      "byteOffset": 16736,
      "componentType": 5126,
      "count": 76,
      "max": [
        0.9987576007843018,
        0.9990000128746033
      ],
      "min": [
        0.0010000000474974513,
        0.0010000000474974513
      ],
      "type": "VEC2"
    },
    {
      "bufferView": 1,
      "byteOffset": 17344,
      "componentType": 5126,
      "count": 76,
      "max": [
        0.9987576007843018,
        0.9990000128746033
      ],
      "min": [
        0.0010000000474974513,
        0.0010000000474974513
      ],
      "type": "VEC2"
    },
    {
      "bufferView": 0,
      "byteOffset": 8040,
      "componentType": 5125,
      "count": 138,
      "type": "SCALAR"
    },
    {
      "bufferView": 2,
      "byteOffset": 27264,
      "componentType": 5126,
      "count": 240,
      "max": [
        0.031443040817976,
        0.019063103944063187,
        0.028175024315714836
      ],
      "min": [
        -0.031443040817976,
        -4.8446654687950286e-08,
        -0.028175024315714836
      ],
      "type": "VEC3"
    },
    {
      "bufferView": 2,
      "byteOffset": 30144,
      "componentType": 5126,
      "count": 240,
      "max": [
        0.8662631511688232,
        1.0,
        0.8664406538009644
      ],
      "min": [
        -0.8667404651641846,
        -1.0,
        -0.8665905594825745
      ],
      "type": "VEC3"
    },
    {
      "bufferView": 1,
      "byteOffset": 17952,
      "componentType": 5126,
      "count": 240,
      "max": [
        0.9805845022201538,
        0.9990000128746033
      ],
      "min": [
        0.0010000000474974513,
        0.0010000000474974513
      ],
      "type": "VEC2"
    },
    {
      "bufferView": 1,
      "byteOffset": 19872,
      "componentType": 5126,
      "count": 240,
      "max": [
        0.9805845022201538,
        0.9990000128746033
      ],
      "min": [
        0.0010000000474974513,
        0.0010000000474974513
      ],
      "type": "VEC2"
    },
    {
      "bufferView": 0,
      "byteOffset": 8592,
      "componentType": 5125,
      "count": 456,
      "type": "SCALAR"
    },
    {
      "bufferView": 2,
      "byteOffset": 33024,
      "componentType": 5126,
      "count": 252,
      "max": [
        0.029316039755940437,
        0.019062329083681107,
        0.034873008728027344
      ],
      "min": [
        -0.029316039755940437,
        0.0,
        -0.034873008728027344
      ],
      "type": "VEC3"
    },
    {
      "bufferView": 2,
      "byteOffset": 36048,
      "componentType": 5126,
      "count": 252,
      "max": [
        0.8697825074195862,
        1.0,
        0.8665676712989807
      ],
      "min": [
        -0.869783878326416,
        -1.0,
        -0.8671693801879883
      ],
      "type": "VEC3"
    },
    {
      "bufferView": 1,
      "byteOffset": 21792,
      "componentType": 5126,
      "count": 252,
      "max": [
        0.9990000128746033,
        0.9887463450431824
      ],
      "min": [
        0.0010000000474974513,
        0.0010000000474974513
      ],
      "type": "VEC2"
    },
    {
      "bufferView": 1,
      "byteOffset": 23808,
      "componentType": 5126,
      "count": 252,
      "max": [
        0.9990000128746033,
        0.9887463450431824
      ],
      "min": [
        0.0010000000474974513,
        0.0010000000474974513
      ],
      "type": "VEC2"
    },
    {
      "bufferView": 0,
      "byteOffset": 10416,
      "componentType": 5125,
      "count": 402,
      "type": "SCALAR"
    }
  ],
  "asset": {
    "extras": {
      "author": "1159929061 (https://sketchfab.com/1159929061)",
      "license": "CC-BY-4.0 (http://creativecommons.org/licenses/by/4.0/)",
      "source": "https://sketchfab.com/3d-models/hd-floor5-deb53f620a06430e9849411316e47356",
      "title": "hd_floor5"
    },
    "generator": "Sketchfab-15.30.0",
    "version": "2.0"
  },
  "bufferViews": [
    {
      "buffer": 0,
      "byteLength": 12024,
      "name": "floatBufferViews",
      "target": 34963
    },
    {
      "buffer": 0,
      "byteLength": 25824,
      "byteOffset": 12024,
      "byteStride": 8,
      "name": "floatBufferViews",
      "target": 34962
    },
    {
      "buffer": 0,
      "byteLength": 39072,
      "byteOffset": 37848,
      "byteStride": 12,
      "name": "floatBufferViews",
      "target": 34962
    }
  ],
  "buffers": [
    {
      "byteLength": 76920,
      "uri": "scene.bin"
    }
  ],
  "images": [
    {
      "uri": "textures/hd_5_zoulangDiffuseMap_baseColor.jpeg"
    },
    {
      "uri": "textures/hd_5_zoulangDiffuseMap_emissive.png"
    },
    {
      "uri": "textures/hd_5floor_room01DiffuseMap_baseColor.jpeg"
    },
    {
      "uri": "textures/hd_5floor_room01DiffuseMap_emissive.png"
    },
    {
      "uri": "textures/hd_5floor_room02DiffuseMap_baseColor.jpeg"
    },
    {
      "uri": "textures/hd_5floor_room02DiffuseMap_emissive.png"
    },
    {
      "uri": "textures/hd_5floor_room03DiffuseMap_baseColor.jpeg"
    },
    {
      "uri": "textures/hd_5floor_room03DiffuseMap_emissive.png"
    },
    {
      "uri": "textures/hd_5floor_room04DiffuseMap_baseColor.jpeg"
    },
    {
      "uri": "textures/hd_5floor_room04DiffuseMap_emissive.png"
    }
  ],
  "materials": [
    {
      "name": "Material_15"
    },
    {
      "emissiveFactor": [
        1.0,
        1.0,
        1.0
      ],
      "emissiveTexture": {
        "index": 1
      },
      "name": "hd_5_zoulangDiffuseMap",
      "pbrMetallicRoughness": {
        "baseColorTexture": {
          "index": 0
        },
        "metallicFactor": 0.0,
        "roughnessFactor": 0.858579
      }
    },
    {
      "emissiveFactor": [
        1.0,
        1.0,
        1.0
      ],
      "emissiveTexture": {
        "index": 3
      },
      "name": "hd_5floor_room01DiffuseMap",
      "pbrMetallicRoughness": {
        "baseColorTexture": {
          "index": 2
        },
        "metallicFactor": 0.0,
        "roughnessFactor": 0.858579
      }
    },
    {
      "emissiveFactor": [
        1.0,
        1.0,
        1.0
      ],
      "emissiveTexture": {
        "index": 5
      },
      "name": "hd_5floor_room02DiffuseMap",
      "pbrMetallicRoughness": {
        "baseColorTexture": {
          "index": 4
        },
        "metallicFactor": 0.0,
        "roughnessFactor": 0.858579
      }
    },
    {
      "emissiveFactor": [
        1.0,
        1.0,
        1.0
      ],
      "emissiveTexture": {
        "index": 7
      },
      "name": "hd_5floor_room03DiffuseMap",
      "pbrMetallicRoughness": {
        "baseColorTexture": {
          "index": 6
        },
        "metallicFactor": 0.0,
        "roughnessFactor": 0.858579
      }
    },
    {
      "emissiveFactor": [
        1.0,
        1.0,
        1.0
      ],
      "emissiveTexture": {
        "index": 9
      },
      "name": "hd_5floor_room04DiffuseMap",
      "pbrMetallicRoughness": {
        "baseColorTexture": {
          "index": 8
        },
        "metallicFactor": 0.0,
        "roughnessFactor": 0.858579
      }
    }
  ],
  "meshes": [
    {
      "name": "Object_0",
      "primitives": [
        {
          "attributes": {
            "NORMAL": 1,
            "POSITION": 0,
            "TEXCOORD_0": 2
          },
          "indices": 3,
          "material": 0,
          "mode": 4
        }
      ]
    },
    {
      "name": "Object_1",
      "primitives": [
        {
          "attributes": {
            "NORMAL": 5,
            "POSITION": 4,
            "TEXCOORD_0": 6,
            "TEXCOORD_1": 7
          },
          "indices": 8,
          "material": 1,
          "mode": 4
        }
      ]
    },
    {
      "name": "Object_2",
      "primitives": [
        {
          "attributes": {
            "NORMAL": 10,
            "POSITION": 9,
            "TEXCOORD_0": 11,
            "TEXCOORD_1": 12
          },
          "indices": 13,
          "material": 2,
          "mode": 4
        }
      ]
    },
    {
      "name": "Object_3",
      "primitives": [
        {
          "attributes": {
            "NORMAL": 15,
            "POSITION": 14,
            "TEXCOORD_0": 16,
            "TEXCOORD_1": 17
          },
          "indices": 18,
          "material": 3,
          "mode": 4
        }
      ]
    },
    {
      "name": "Object_4",
      "primitives": [
        {
          "attributes": {
            "NORMAL": 20,
            "POSITION": 19,
            "TEXCOORD_0": 21,
            "TEXCOORD_1": 22
          },
          "indices": 23,
          "material": 4,
          "mode": 4
        }
      ]
    },
    {
      "name": "Object_5",
      "primitives": [
        {
          "attributes": {
            "NORMAL": 25,
            "POSITION": 24,
            "TEXCOORD_0": 26,
            "TEXCOORD_1": 27
          },
          "indices": 28,
          "material": 5,
          "mode": 4
        }
      ]
    }
  ],
  "nodes": [
    {
      "children": [
        1
      ],
      "matrix": [
        1.0,
        0.0,
        0.0,
        0.0,
        0.0,
        2.220446049250313e-16,
        -1.0,
        0.0,
        0.0,
        1.0,
        2.220446049250313e-16,
        0.0,
        0.0,
        0.0,
        0.0,
        1.0
      ],
      "name": "Sketchfab_model"
    },
    {
      "children": [
        2
      ],
      "name": "root"
    },
    {
      "children": [
        3
      ],
      "matrix": [
        1.0,
        0.0,
        0.0,
        0.0,
        0.0,
        2.220446049250313e-16,
        1.0,
        0.0,
        0.0,
        -1.0,
        2.220446049250313e-16,
        0.0,
        0.0,
        0.0,
        0.0,
        1.0
      ],
      "name": "GLTF_SceneRootNode"
    },
    {
      "children": [
        4,
        6,
        8,
        10,
        12,
        14
      ],
      "matrix": [
        -18.0,
        0.0,
        0.0,
        0.0,
        0.0,
        18.0,
        0.0,
        0.0,
        0.0,
        0.0,
        -18.0,
        0.0,
        -3.2005374431610107,
        1.5789302587509155,
        1.0886783599853516,
        1.0
      ],
      "name": "HD_5_0"
    },
    {
      "children": [
        5
      ],
      "matrix": [
        1.0,
        0.0,
        0.0,
        0.0,
        0.0,
        1.0,
        -1.4210846244872531e-14,
        0.0,
        0.0,
        1.4210846244872531e-14,
        1.0,
        0.0,
        -0.001930841477587819,
        -0.00046517871669493616,
        3.9608166844118387e-05,
        1.0
      ],
      "name": "hd_5floor_wlm_1"
    },
    {
      "mesh": 0,
      "name": "Object_5"
    },
    {
      "children": [
        7
      ],
      "matrix": [
        1.0,
        0.0,
        0.0,
        0.0,
        0.0,
        1.0,
        0.0,
        0.0,
        0.0,
        0.0,
        1.0,
        0.0,
        0.008110974915325642,
        -1.9378661875180114e-07,
        -0.009283163584768772,
        1.0
      ],
      "name": "hd_5_zoulang_2"
    },
    {
      "mesh": 1,
      "name": "Object_7"
    },
    {
      "children": [
        9
      ],
      "matrix": [
        1.0,
        0.0,
        0.0,
        0.0,
        0.0,
        1.0,
        0.0,
        0.0,
        0.0,
        0.0,
        1.0,
        0.0,
        0.007808292750269175,
        -1.9378661875180114e-07,
        0.00037359638372436166,
        1.0
      ],
      "name": "hd_5floor_room01_3"
    },
    {
      "mesh": 2,
      "name": "Object_9"
    },
    {
      "children": [
        11
      ],
      "matrix": [
        1.0,
        0.0,
        0.0,
        0.0,
        0.0,
        1.0,
        0.0,
        0.0,
        0.0,
        0.0,
        1.0,
        0.0,
        -0.0017611206276342273,
        -1.9378661875180114e-07,
        -0.04155837744474411,
        1.0
      ],
      "name": "hd_5floor_room02_4"
    },
    {
      "mesh": 3,
      "name": "Object_11"
    },
    {
      "children": [
        13
      ],
      "matrix": [
        1.0,
        0.0,
        0.0,
        0.0,
        0.0,
        1.0,
        0.0,
        0.0,
        0.0,
        0.0,
        1.0,
        0.0,
        -0.03192363306879997,
        -1.9378661875180114e-07,
        -0.024950433522462845,
        1.0
      ],
      "name": "hd_5floor_room03_5"
    },
    {
      "mesh": 4,
      "name": "Object_13"
    },
    {
      "children": [
        15
      ],
      "matrix": [
        1.0,
        0.0,
        0.0,
        0.0,
        0.0,
        1.0,
        0.0,
        0.0,
        0.0,
        0.0,
        1.0,
        0.0,
        -0.011589989997446537,
        -1.9984244659099204e-07,
        0.03315384313464165,
        1.0
      ],
      "name": "hd_5floor_room04_6"
    },
    {
      "mesh": 5,
      "name": "Object_15"
    }
  ],
  "samplers": [
    {
      "magFilter": 9729,
      "minFilter": 9729,
      "wrapS": 10497,
      "wrapT": 10497
    }
  ],
  "scene": 0,
  "scenes": [
    {
      "name": "Sketchfab_Scene",
      "nodes": [
        0
      ]
    }
  ],
  "textures": [
    {
      "sampler": 0,
      "source": 0
    },
    {
      "sampler": 0,
      "source": 1
    },
    {
      "sampler": 0,
      "source": 2
    },
    {
      "sampler": 0,
      "source": 3
    },
    {
      "sampler": 0,
      "source": 4
    },
    {
      "sampler": 0,
      "source": 5
    },
    {
      "sampler": 0,
      "source": 6
    },
    {
      "sampler": 0,
      "source": 7
    },
    {
      "sampler": 0,
      "source": 8
    },
    {
      "sampler": 0,
      "source": 9
    }
  ]
}
