{
  "accessors": [
    {
      "bufferView": 2,
      "componentType": 5126,
      "count": 2138,
      "max": [
        0.8129843473434448,
        0.1633976697921753,
        0.759602427482605
      ],
      "min": [
        -0.8129841685295105,
        -0.007774038705974817,
        -0.7596021294593811
      ],
      "type": "VEC3"
    },
    {
      "bufferView": 2,
      "byteOffset": 25656,
      "componentType": 5126,
      "count": 2138,
      "max": [
        0.8660292625427246,
        1.0,
        0.8712911605834961
      ],
      "min": [
        -0.8660308122634888,
        -1.0,
        -1.0
      ],
      "type": "VEC3"
    },
    {
      "bufferView": 1,
      "componentType": 5126,
      "count": 2138,
      "max": [
        0.9990000128746033,
        0.9946534037590027
      ],
      "min": [
        0.0010000000474974513,
        0.0010000000474974513
      ],
      "type": "VEC2"
    },
    {
      "bufferView": 1,
      "byteOffset": 17104,
      "componentType": 5126,
      "count": 2138,
      "max": [
        0.9990000128746033,
        0.9946534037590027
      ],
      "min": [
        0.0010000000474974513,
        0.0010000000474974513
      ],
      "type": "VEC2"
    },
    {
      "bufferView": 0,
      "componentType": 5125,
      "count": 3876,
      "type": "SCALAR"
    }
  ],
  "asset": {
    "extras": {
      "author": "1159929061 (https://sketchfab.com/1159929061)",
      "license": "CC-BY-4.0 (http://creativecommons.org/licenses/by/4.0/)",
      "source": "https://sketchfab.com/3d-models/hd-1floor-room5-39fd86b1eb9947468575f1949922305f",
      "title": "hd_1floor_room5"
    },
    "generator": "Sketchfab-15.34.0",
    "version": "2.0"
  },
  "bufferViews": [
    {
      "buffer": 0,
      "byteLength": 15504,
      "name": "floatBufferViews",
      "target": 34963
    },
    {
      "buffer": 0,
      "byteLength": 34208,
      "byteOffset": 15504,
      "byteStride": 8,
      "name": "floatBufferViews",
      "target": 34962
    },
    {
      "buffer": 0,
      "byteLength": 51312,
      "byteOffset": 49712,
      "byteStride": 12,
      "name": "floatBufferViews",
      "target": 34962
    }
  ],
  "buffers": [
    {
      "byteLength": 101024,
      "uri": "scene.bin"
    }
  ],
  "images": [
    {
      "uri": "textures/hd_1floor_room05DiffuseMap_baseColor.jpeg"
    },
    {
      "uri": "textures/hd_1floor_room05DiffuseMap_emissive.jpeg"
    }
  ],
  "materials": [
    {
      "emissiveFactor": [
        1.0,
        1.0,
        1.0
      ],
      "emissiveTexture": {
        "index": 1
      },
      "name": "hd_1floor_room05DiffuseMap",
      "pbrMetallicRoughness": {
        "baseColorTexture": {
          "index": 0
        },
        "metallicFactor": 0.0,
        "roughnessFactor": 0.858579
      }
    }
  ],
  "meshes": [
    {
      "name": "Object_0",
      "primitives": [
        {
          "attributes": {
            "NORMAL": 1,
            "POSITION": 0,
            "TEXCOORD_0": 2,
            "TEXCOORD_1": 3
          },
          "indices": 4,
          "material": 0,
          "mode": 4
        }
      ]
    }
  ],
  "nodes": [
    {
      "children": [
        1
      ],
      "matrix": [
        1.0,
        0.0,
        0.0,
        0.0,
        0.0,
        2.220446049250313e-16,
        -1.0,
        0.0,
        0.0,
        1.0,
        2.220446049250313e-16,
        0.0,
        0.0,
        0.0,
        0.0,
        1.0
      ],
      "name": "Sketchfab_model"
    },
    {
      "children": [
        2
      ],
      "name": "root"
    },
    {
      "children": [
        3
      ],
      "matrix": [
        1.0,
        0.0,
        0.0,
        0.0,
        0.0,
        2.220446049250313e-16,
        1.0,
        0.0,
        0.0,
        -1.0,
        2.220446049250313e-16,
        0.0,
        0.0,
        0.0,
        0.0,
        1.0
      ],
      "name": "GLTF_SceneRootNode"
    },
    {
      "children": [
        4
      ],
      "matrix": [
        -1.8186531400517207,
        0.0,
        -1.0500001693508494,
        0.0,
        0.0,
        2.0999999046325684,
        0.0,
        0.0,
        1.0500001693508494,
        0.0,
        -1.8186531400517207,
        0.0,
        -0.3893841803073883,
        0.020008651539683342,
        0.258622407913208,
        1.0
      ],
      "name": "hd_1floor_room05 (1)_0"
    },
    {
      "mesh": 0,
      "name": "Object_4"
    }
  ],
  "samplers": [
    {
      "magFilter": 9729,
      "minFilter": 9729,
      "wrapS": 10497,
      "wrapT": 10497
    }
  ],
  "scene": 0,
  "scenes": [
    {
      "name": "Sketchfab_Scene",
      "nodes": [
        0
      ]
    }
  ],
  "textures": [
    {
      "sampler": 0,
      "source": 0
    },
    {
      "sampler": 0,
      "source": 1
    }
  ]
}
