{
  "accessors": [
    {
      "bufferView": 2,
      "componentType": 5126,
      "count": 1659,
      "max": [
        16.29965591430664,
        23.304500579833984,
        -0.09116187691688538
      ],
      "min": [
        -16.29965591430664,
        -23.304698944091797,
        -13.426231384277344
      ],
      "type": "VEC3"
    },
    {
      "bufferView": 2,
      "byteOffset": 19908,
      "componentType": 5126,
      "count": 1659,
      "max": [
        1.0,
        1.0,
        1.0
      ],
      "min": [
        -1.0,
        -1.0,
        -1.0
      ],
      "type": "VEC3"
    },
    {
      "bufferView": 1,
      "componentType": 5126,
      "count": 1659,
      "max": [
        0.9990000128746033,
        0.9948253035545349
      ],
      "min": [
        0.0010000000474974513,
        0.0010000000474974513
      ],
      "type": "VEC2"
    },
    {
      "bufferView": 1,
      "byteOffset": 13272,
      "componentType": 5126,
      "count": 1659,
      "max": [
        145883.640625,
        66935.640625
      ],
      "min": [
        -3039.25,
        -873.57421875
      ],
      "type": "VEC2"
    },
    {
      "bufferView": 1,
      "byteOffset": 26544,
      "componentType": 5126,
      "count": 1659,
      "max": [
        0.9990000128746033,
        0.9948253035545349
      ],
      "min": [
        0.0010000000474974513,
        0.0010000000474974513
      ],
      "type": "VEC2"
    },
    {
      "bufferView": 0,
      "componentType": 5125,
      "count": 3075,
      "type": "SCALAR"
    },
    {
      "bufferView": 2,
      "byteOffset": 39816,
      "componentType": 5126,
      "count": 192,
      "max": [
        7.265987396240234,
        3.976191282272339,
        -0.13172994554042816
      ],
      "min": [
        -7.265987396240234,
        -3.9761416912078857,
        -13.385555267333984
      ],
      "type": "VEC3"
    },
    {
      "bufferView": 2,
      "byteOffset": 42120,
      "componentType": 5126,
      "count": 192,
      "max": [
        1.0,
        1.0,
        1.0
      ],
      "min": [
        -1.0,
        -1.0,
        -1.0
      ],
      "type": "VEC3"
    },
    {
      "bufferView": 1,
      "byteOffset": 39816,
      "componentType": 5126,
      "count": 192,
      "max": [
        0.9990000128746033,
        0.9984989762306213
      ],
      "min": [
        0.0010000000474974513,
        0.0010000000474974513
      ],
      "type": "VEC2"
    },
    {
      "bufferView": 1,
      "byteOffset": 41352,
      "componentType": 5126,
      "count": 192,
      "max": [
        145549.84375,
        65120.63671875
      ],
      "min": [
        -2403.78125,
        -156.541015625
      ],
      "type": "VEC2"
    },
    {
      "bufferView": 1,
      "byteOffset": 42888,
      "componentType": 5126,
      "count": 192,
      "max": [
        0.9990000128746033,
        0.9984989762306213
      ],
      "min": [
        0.0010000000474974513,
        0.0010000000474974513
      ],
      "type": "VEC2"
    },
    {
      "bufferView": 0,
      "byteOffset": 12300,
      "componentType": 5125,
      "count": 318,
      "type": "SCALAR"
    },
    {
      "bufferView": 2,
      "byteOffset": 44424,
      "componentType": 5126,
      "count": 187,
      "max": [
        4.317999362945557,
        4.230190753936768,
        -0.21041041612625122
      ],
      "min": [
        -4.318000316619873,
        -4.230290412902832,
        -13.464280128479004
      ],
      "type": "VEC3"
    },
    {
      "bufferView": 2,
      "byteOffset": 46668,
      "componentType": 5126,
      "count": 187,
      "max": [
        1.0,
        1.0,
        1.0
      ],
      "min": [
        -1.0,
        -1.0,
        -1.0
      ],
      "type": "VEC3"
    },
    {
      "bufferView": 1,
      "byteOffset": 44424,
      "componentType": 5126,
      "count": 187,
      "max": [
        0.9946280717849731,
        0.9990000128746033
      ],
      "min": [
        0.0010000000474974513,
        0.0010000000474974513
      ],
      "type": "VEC2"
    },
    {
      "bufferView": 1,
      "byteOffset": 45920,
      "componentType": 5126,
      "count": 187,
      "max": [
        145870.21875,
        65413.7109375
      ],
      "min": [
        -1831.65625,
        -156.541015625
      ],
      "type": "VEC2"
    },
    {
      "bufferView": 1,
      "byteOffset": 47416,
      "componentType": 5126,
      "count": 187,
      "max": [
        0.9946280717849731,
        0.9990000128746033
      ],
      "min": [
        0.0010000000474974513,
        0.0010000000474974513
      ],
      "type": "VEC2"
    },
    {
      "bufferView": 0,
      "byteOffset": 13572,
      "componentType": 5125,
      "count": 303,
      "type": "SCALAR"
    }
  ],
  "asset": {
    "extras": {
      "author": "ningss (https://sketchfab.com/ningss)",
      "license": "CC-BY-4.0 (http://creativecommons.org/licenses/by/4.0/)",
      "source": "https://sketchfab.com/3d-models/hc-103-adjust-89b4349d323644b88ca07d43a8dde87a",
      "title": "hc_103_adjust"
    },
    "generator": "Sketchfab-14.40.0",
    "version": "2.0"
  },
  "bufferViews": [
    {
      "buffer": 0,
      "byteLength": 14784,
      "name": "floatBufferViews",
      "target": 34963
    },
    {
      "buffer": 0,
      "byteLength": 48912,
      "byteOffset": 14784,
      "byteStride": 8,
      "name": "floatBufferViews",
      "target": 34962
    },
    {
      "buffer": 0,
      "byteLength": 48912,
      "byteOffset": 63696,
      "byteStride": 12,
      "name": "floatBufferViews",
      "target": 34962
    }
  ],
  "buffers": [
    {
      "byteLength": 112608,
      "uri": "scene.bin"
    }
  ],
  "images": [
    {
      "uri": "textures/hc_1floor_room018_DiffuseMap_baseColor.jpeg"
    },
    {
      "uri": "textures/hc_1floor_room018_DiffuseMap_emissive.jpeg"
    },
    {
      "uri": "textures/hc_1floor_room019_DiffuseMap_baseColor.jpeg"
    },
    {
      "uri": "textures/hc_1floor_room019_DiffuseMap_emissive.jpeg"
    },
    {
      "uri": "textures/hc_1floor_room020_DiffuseMap_baseColor.jpeg"
    },
    {
      "uri": "textures/hc_1floor_room020_DiffuseMap_emissive.jpeg"
    }
  ],
  "materials": [
    {
      "emissiveFactor": [
        1.0,
        1.0,
        1.0
      ],
      "emissiveTexture": {
        "index": 1
      },
      "name": "hc_1floor_room018_DiffuseMap",
      "pbrMetallicRoughness": {
        "baseColorFactor": [
          0.588,
          0.588,
          0.588,
          1.0
        ],
        "baseColorTexture": {
          "index": 0
        },
        "metallicFactor": 0.0
      }
    },
    {
      "emissiveFactor": [
        1.0,
        1.0,
        1.0
      ],
      "emissiveTexture": {
        "index": 3
      },
      "name": "hc_1floor_room019_DiffuseMap",
      "pbrMetallicRoughness": {
        "baseColorFactor": [
          0.588,
          0.588,
          0.588,
          1.0
        ],
        "baseColorTexture": {
          "index": 2
        },
        "metallicFactor": 0.0
      }
    },
    {
      "emissiveFactor": [
        1.0,
        1.0,
        1.0
      ],
      "emissiveTexture": {
        "index": 5
      },
      "name": "hc_1floor_room020_DiffuseMap",
      "pbrMetallicRoughness": {
        "baseColorFactor": [
          0.588,
          0.588,
          0.588,
          1.0
        ],
        "baseColorTexture": {
          "index": 4
        },
        "metallicFactor": 0.0
      }
    }
  ],
  "meshes": [
    {
      "name": "Object_0",
      "primitives": [
        {
          "attributes": {
            "NORMAL": 1,
            "POSITION": 0,
            "TEXCOORD_0": 2,
            "TEXCOORD_1": 3,
            "TEXCOORD_2": 4
          },
          "indices": 5,
          "material": 0,
          "mode": 4
        }
      ]
    },
    {
      "name": "Object_1",
      "primitives": [
        {
          "attributes": {
            "NORMAL": 7,
            "POSITION": 6,
            "TEXCOORD_0": 8,
            "TEXCOORD_1": 9,
            "TEXCOORD_2": 10
          },
          "indices": 11,
          "material": 1,
          "mode": 4
        }
      ]
    },
    {
      "name": "Object_2",
      "primitives": [
        {
          "attributes": {
            "NORMAL": 13,
            "POSITION": 12,
            "TEXCOORD_0": 14,
            "TEXCOORD_1": 15,
            "TEXCOORD_2": 16
          },
          "indices": 17,
          "material": 2,
          "mode": 4
        }
      ]
    }
  ],
  "nodes": [
    {
      "children": [
        1
      ],
      "matrix": [
        1.0,
        0.0,
        0.0,
        0.0,
        0.0,
        2.220446049250313e-16,
        -1.0,
        0.0,
        0.0,
        1.0,
        2.220446049250313e-16,
        0.0,
        0.0,
        0.0,
        0.0,
        1.0
      ],
      "name": "Sketchfab_model"
    },
    {
      "children": [
        2
      ],
      "name": "root"
    },
    {
      "children": [
        3
      ],
      "matrix": [
        1.0,
        0.0,
        0.0,
        0.0,
        0.0,
        2.220446049250313e-16,
        1.0,
        0.0,
        0.0,
        -1.0,
        2.220446049250313e-16,
        0.0,
        0.0,
        0.0,
        0.0,
        1.0
      ],
      "name": "GLTF_SceneRootNode"
    },
    {
      "children": [
        4,
        6,
        8
      ],
      "matrix": [
        0.0,
        0.0,
        0.0393701009452343,
        0.0,
        -0.0393701009452343,
        0.0,
        0.0,
        0.0,
        0.0,
        -0.0393701009452343,
        0.0,
        0.0,
        0.4409451484680176,
        -0.0401575043797493,
        -1.3437016010284424,
        1.0
      ],
      "name": "HC_103__1__0"
    },
    {
      "children": [
        5
      ],
      "matrix": [
        1.0,
        0.0,
        0.0,
        0.0,
        0.0,
        1.0,
        0.0,
        0.0,
        0.0,
        0.0,
        1.0,
        0.0,
        34.14896774291992,
        11.2638521194458,
        -0.9590538740158081,
        1.0
      ],
      "name": "hc_1floor_room018_1_1"
    },
    {
      "mesh": 0,
      "name": "Object_5"
    },
    {
      "children": [
        7
      ],
      "matrix": [
        1.0,
        0.0,
        0.0,
        0.0,
        0.0,
        1.0,
        0.0,
        0.0,
        0.0,
        0.0,
        1.0,
        0.0,
        34.09260940551758,
        -8.064754486083984,
        -0.9184865355491638,
        1.0
      ],
      "name": "hc_1floor_room019_1_2"
    },
    {
      "mesh": 1,
      "name": "Object_7"
    },
    {
      "children": [
        9
      ],
      "matrix": [
        1.0,
        0.0,
        0.0,
        0.0,
        0.0,
        1.0,
        0.0,
        0.0,
        0.0,
        0.0,
        1.0,
        0.0,
        22.50861930847168,
        -8.318754196166992,
        -0.8398049473762512,
        1.0
      ],
      "name": "hc_1floor_room020_1_3"
    },
    {
      "mesh": 2,
      "name": "Object_9"
    }
  ],
  "samplers": [
    {
      "magFilter": 9729,
      "minFilter": 9729,
      "wrapS": 10497,
      "wrapT": 10497
    }
  ],
  "scene": 0,
  "scenes": [
    {
      "name": "Sketchfab_Scene",
      "nodes": [
        0
      ]
    }
  ],
  "textures": [
    {
      "sampler": 0,
      "source": 0
    },
    {
      "sampler": 0,
      "source": 1
    },
    {
      "sampler": 0,
      "source": 2
    },
    {
      "sampler": 0,
      "source": 3
    },
    {
      "sampler": 0,
      "source": 4
    },
    {
      "sampler": 0,
      "source": 5
    }
  ]
}
