{
  "accessors": [
    {
      "bufferView": 2,
      "componentType": 5126,
      "count": 20584,
      "max": [
        6.350312232971191,
        13.84999942779541,
        4.6000142097473145
      ],
      "min": [
        -6.350312232971191,
        -13.850077629089355,
        -4.600014686584473
      ],
      "type": "VEC3"
    },
    {
      "bufferView": 2,
      "byteOffset": 247008,
      "componentType": 5126,
      "count": 20584,
      "max": [
        1.0,
        1.0,
        1.0
      ],
      "min": [
        -1.0,
        -1.0,
        -1.0
      ],
      "type": "VEC3"
    },
    {
      "bufferView": 1,
      "componentType": 5126,
      "count": 20584,
      "max": [
        0.9990000128746033,
        0.9975003004074097
      ],
      "min": [
        0.0010000000474974513,
        0.0010000000474974513
      ],
      "type": "VEC2"
    },
    {
      "bufferView": 1,
      "byteOffset": 164672,
      "componentType": 5126,
      "count": 20584,
      "max": [
        0.9990000128746033,
        0.9975003004074097
      ],
      "min": [
        0.0010000000474974513,
        0.0010000000474974513
      ],
      "type": "VEC2"
    },
    {
      "bufferView": 1,
      "byteOffset": 329344,
      "componentType": 5126,
      "count": 20584,
      "max": [
        147977.703125,
        68734.703125
      ],
      "min": [
        -1823.046875,
        -1220.5234375
      ],
      "type": "VEC2"
    },
    {
      "bufferView": 0,
      "componentType": 5125,
      "count": 31713,
      "type": "SCALAR"
    }
  ],
  "asset": {
    "extras": {
      "author": "hy123 (https://sketchfab.com/hy123)",
      "license": "CC-BY-4.0 (http://creativecommons.org/licenses/by/4.0/)",
      "source": "https://sketchfab.com/3d-models/hc-1floor-002-6526bab3f3754fe19a5a30aba8158f9d",
      "title": "hc_1floor_002"
    },
    "generator": "Sketchfab-13.69.0",
    "version": "2.0"
  },
  "bufferViews": [
    {
      "buffer": 0,
      "byteLength": 126852,
      "name": "floatBufferViews",
      "target": 34963
    },
    {
      "buffer": 0,
      "byteLength": 494016,
      "byteOffset": 126852,
      "byteStride": 8,
      "name": "floatBufferViews",
      "target": 34962
    },
    {
      "buffer": 0,
      "byteLength": 494016,
      "byteOffset": 620868,
      "byteStride": 12,
      "name": "floatBufferViews",
      "target": 34962
    }
  ],
  "buffers": [
    {
      "byteLength": 1114884,
      "uri": ".bin"
    }
  ],
  "images": [
    {
      "uri": "textures/M_hc_1floor_room002_ok_baseColor.jpeg"
    },
    {
      "uri": "textures/M_hc_1floor_room002_ok_emissive.jpeg"
    }
  ],
  "materials": [
    {
      "emissiveFactor": [
        0.481132,
        0.481132,
        0.481132
      ],
      "emissiveTexture": {
        "index": 1,
        "texCoord": 1
      },
      "name": "M_hc_1floor_room002_ok",
      "pbrMetallicRoughness": {
        "baseColorTexture": {
          "index": 0
        },
        "metallicFactor": 0.165
      }
    }
  ],
  "meshes": [
    {
      "name": "Object_0",
      "primitives": [
        {
          "attributes": {
            "NORMAL": 1,
            "POSITION": 0,
            "TEXCOORD_0": 2,
            "TEXCOORD_1": 3,
            "TEXCOORD_2": 4
          },
          "indices": 5,
          "material": 0,
          "mode": 4
        }
      ]
    }
  ],
  "nodes": [
    {
      "children": [
        1
      ],
      "matrix": [
        1.0,
        0.0,
        0.0,
        0.0,
        0.0,
        2.220446049250313e-16,
        -1.0,
        0.0,
        0.0,
        1.0,
        2.220446049250313e-16,
        0.0,
        0.0,
        0.0,
        0.0,
        1.0
      ],
      "name": "Sketchfab_model"
    },
    {
      "children": [
        2
      ],
      "name": "root"
    },
    {
      "children": [
        3
      ],
      "matrix": [
        1.0,
        0.0,
        0.0,
        0.0,
        0.0,
        2.220446049250313e-16,
        1.0,
        0.0,
        0.0,
        -1.0,
        2.220446049250313e-16,
        0.0,
        0.0,
        0.0,
        0.0,
        1.0
      ],
      "name": "GLTF_SceneRootNode"
    },
    {
      "children": [
        4
      ],
      "matrix": [
        0.010000000707805157,
        0.0,
        0.0,
        0.0,
        0.0,
        0.0,
        0.010000002570450306,
        0.0,
        0.0,
        -0.010000002570450306,
        0.0,
        0.0,
        0.802869975566864,
        0.5013486742973328,
        2.7737300395965576,
        1.0
      ],
      "name": "hc_1floor_room002_0"
    },
    {
      "mesh": 0,
      "name": "Object_4"
    }
  ],
  "samplers": [
    {
      "magFilter": 9729,
      "minFilter": 9729,
      "wrapS": 10497,
      "wrapT": 10497
    }
  ],
  "scene": 0,
  "scenes": [
    {
      "name": "Sketchfab_Scene",
      "nodes": [
        0
      ]
    }
  ],
  "textures": [
    {
      "sampler": 0,
      "source": 0
    },
    {
      "sampler": 0,
      "source": 1
    }
  ]
}
