{
  "accessors": [
    {
      "bufferView": 2,
      "componentType": 5126,
      "count": 110,
      "max": [
        18.04769515991211,
        30.000078201293945,
        6.103515488575795e-07
      ],
      "min": [
        -18.04781150817871,
        -30.00015640258789,
        6.103515488575795e-07
      ],
      "type": "VEC3"
    },
    {
      "bufferView": 2,
      "byteOffset": 1320,
      "componentType": 5126,
      "count": 110,
      "max": [
        0.0,
        0.0,
        -1.0
      ],
      "min": [
        0.0,
        0.0,
        -1.0
      ],
      "type": "VEC3"
    },
    {
      "bufferView": 1,
      "componentType": 5126,
      "count": 110,
      "max": [
        0.9979999661445618,
        0.6011830568313599
      ],
      "min": [
        0.0020000000949949026,
        0.0020000000949949026
      ],
      "type": "VEC2"
    },
    {
      "bufferView": 1,
      "byteOffset": 880,
      "componentType": 5126,
      "count": 110,
      "max": [
        0.9979999661445618,
        0.6011830568313599
      ],
      "min": [
        0.0020000000949949026,
        0.0020000000949949026
      ],
      "type": "VEC2"
    },
    {
      "bufferView": 0,
      "componentType": 5125,
      "count": 360,
      "type": "SCALAR"
    }
  ],
  "asset": {
    "extras": {
      "author": "ningss (https://sketchfab.com/ningss)",
      "license": "CC-BY-4.0 (http://creativecommons.org/licenses/by/4.0/)",
      "source": "https://sketchfab.com/3d-models/hc-roof-a980608d1eef49e492a4d2787e2d4d7b",
      "title": "hc_roof"
    },
    "generator": "Sketchfab-13.81.0",
    "version": "2.0"
  },
  "bufferViews": [
    {
      "buffer": 0,
      "byteLength": 1440,
      "name": "floatBufferViews",
      "target": 34963
    },
    {
      "buffer": 0,
      "byteLength": 1760,
      "byteOffset": 1440,
      "byteStride": 8,
      "name": "floatBufferViews",
      "target": 34962
    },
    {
      "buffer": 0,
      "byteLength": 2640,
      "byteOffset": 3200,
      "byteStride": 12,
      "name": "floatBufferViews",
      "target": 34962
    }
  ],
  "buffers": [
    {
      "byteLength": 5840,
      "uri": "scene.bin"
    }
  ],
  "images": [
    {
      "uri": "textures/M_hc_2floor_ding_ok_baseColor.jpeg"
    }
  ],
  "materials": [
    {
      "name": "M_hc_2floor_ding_ok",
      "pbrMetallicRoughness": {
        "baseColorTexture": {
          "index": 0
        },
        "metallicFactor": 0.0
      }
    }
  ],
  "meshes": [
    {
      "name": "Object_0",
      "primitives": [
        {
          "attributes": {
            "NORMAL": 1,
            "POSITION": 0,
            "TEXCOORD_0": 2,
            "TEXCOORD_1": 3
          },
          "indices": 4,
          "material": 0,
          "mode": 4
        }
      ]
    }
  ],
  "nodes": [
    {
      "children": [
        1
      ],
      "matrix": [
        1.0,
        0.0,
        0.0,
        0.0,
        0.0,
        2.220446049250313e-16,
        -1.0,
        0.0,
        0.0,
        1.0,
        2.220446049250313e-16,
        0.0,
        0.0,
        0.0,
        0.0,
        1.0
      ],
      "name": "Sketchfab_model"
    },
    {
      "children": [
        2
      ],
      "name": "root"
    },
    {
      "children": [
        3
      ],
      "matrix": [
        1.0,
        0.0,
        0.0,
        0.0,
        0.0,
        2.220446049250313e-16,
        1.0,
        0.0,
        0.0,
        -1.0,
        2.220446049250313e-16,
        0.0,
        0.0,
        0.0,
        0.0,
        1.0
      ],
      "name": "GLTF_SceneRootNode"
    },
    {
      "children": [
        4
      ],
      "matrix": [
        0.0,
        0.0,
        0.10000000149011612,
        0.0,
        -0.10000000149011612,
        0.0,
        0.0,
        0.0,
        0.0,
        -0.10000000149011612,
        0.0,
        0.0,
        -0.07100000232458115,
        1.0,
        0.07999999821186066,
        1.0
      ],
      "name": "HC_2floor_ding_0"
    },
    {
      "mesh": 0,
      "name": "Object_4"
    }
  ],
  "samplers": [
    {
      "magFilter": 9729,
      "minFilter": 9729,
      "wrapS": 10497,
      "wrapT": 10497
    }
  ],
  "scene": 0,
  "scenes": [
    {
      "name": "Sketchfab_Scene",
      "nodes": [
        0
      ]
    }
  ],
  "textures": [
    {
      "sampler": 0,
      "source": 0
    }
  ]
}
