{
  "accessors": [
    {
      "bufferView": 2,
      "componentType": 5126,
      "count": 1384,
      "max": [
        12.097246170043945,
        8.890098571777344,
        0.6796784400939941
      ],
      "min": [
        -12.097246170043945,
        -8.89009952545166,
        -11.87559700012207
      ],
      "type": "VEC3"
    },
    {
      "bufferView": 2,
      "byteOffset": 16608,
      "componentType": 5126,
      "count": 1384,
      "max": [
        1.0,
        1.0,
        1.0
      ],
      "min": [
        -1.0,
        -1.0,
        -1.0
      ],
      "type": "VEC3"
    },
    {
      "bufferView": 1,
      "componentType": 5126,
      "count": 1384,
      "max": [
        0.9990000128746033,
        0.9952667355537415
      ],
      "min": [
        0.0010000000474974513,
        0.0010000000474974513
      ],
      "type": "VEC2"
    },
    {
      "bufferView": 1,
      "byteOffset": 11072,
      "componentType": 5126,
      "count": 1384,
      "max": [
        0.9990000128746033,
        0.9952667355537415
      ],
      "min": [
        0.0010000000474974513,
        0.0010000000474974513
      ],
      "type": "VEC2"
    },
    {
      "bufferView": 1,
      "byteOffset": 22144,
      "componentType": 5126,
      "count": 1384,
      "max": [
        0.9990000128746033,
        0.9952667355537415
      ],
      "min": [
        0.0010000000474974513,
        0.0010000000474974513
      ],
      "type": "VEC2"
    },
    {
      "bufferView": 0,
      "componentType": 5125,
      "count": 2472,
      "type": "SCALAR"
    },
    {
      "bufferView": 2,
      "byteOffset": 33216,
      "componentType": 5126,
      "count": 962,
      "max": [
        5.938278675079346,
        5.080111503601074,
        -0.040043290704488754
      ],
      "min": [
        -5.93827486038208,
        -5.080110549926758,
        -12.595205307006836
      ],
      "type": "VEC3"
    },
    {
      "bufferView": 2,
      "byteOffset": 44760,
      "componentType": 5126,
      "count": 962,
      "max": [
        1.0,
        1.0,
        1.0
      ],
      "min": [
        -1.0,
        -1.0,
        -1.0
      ],
      "type": "VEC3"
    },
    {
      "bufferView": 1,
      "byteOffset": 33216,
      "componentType": 5126,
      "count": 962,
      "max": [
        0.9990000128746033,
        0.9990000128746033
      ],
      "min": [
        0.0010000000474974513,
        0.0010000000474974513
      ],
      "type": "VEC2"
    },
    {
      "bufferView": 1,
      "byteOffset": 40912,
      "componentType": 5126,
      "count": 962,
      "max": [
        0.9990000128746033,
        0.9990000128746033
      ],
      "min": [
        0.0010000000474974513,
        0.0010000000474974513
      ],
      "type": "VEC2"
    },
    {
      "bufferView": 1,
      "byteOffset": 48608,
      "componentType": 5126,
      "count": 962,
      "max": [
        0.9990000128746033,
        0.9990000128746033
      ],
      "min": [
        0.0010000000474974513,
        0.0010000000474974513
      ],
      "type": "VEC2"
    },
    {
      "bufferView": 0,
      "byteOffset": 9888,
      "componentType": 5125,
      "count": 1716,
      "type": "SCALAR"
    }
  ],
  "asset": {
    "extras": {
      "author": "1159929061 (https://sketchfab.com/1159929061)",
      "license": "CC-BY-4.0 (http://creativecommons.org/licenses/by/4.0/)",
      "source": "https://sketchfab.com/3d-models/hc-201-b5ac7e1fceb241dfb22d7c3f06a70ce1",
      "title": "hc_201"
    },
    "generator": "Sketchfab-14.1.2",
    "version": "2.0"
  },
  "bufferViews": [
    {
      "buffer": 0,
      "byteLength": 16752,
      "name": "floatBufferViews",
      "target": 34963
    },
    {
      "buffer": 0,
      "byteLength": 56304,
      "byteOffset": 16752,
      "byteStride": 8,
      "name": "floatBufferViews",
      "target": 34962
    },
    {
      "buffer": 0,
      "byteLength": 56304,
      "byteOffset": 73056,
      "byteStride": 12,
      "name": "floatBufferViews",
      "target": 34962
    }
  ],
  "buffers": [
    {
      "byteLength": 129360,
      "uri": "scene.bin"
    }
  ],
  "images": [
    {
      "uri": "textures/hc_2floor_room025_DiffuseMap_baseColor.jpeg"
    },
    {
      "uri": "textures/hc_2floor_room025_DiffuseMap_emissive.jpeg"
    },
    {
      "uri": "textures/hc_2floor_room029_DiffuseMap_baseColor.jpeg"
    },
    {
      "uri": "textures/hc_2floor_room029_DiffuseMap_emissive.jpeg"
    }
  ],
  "materials": [
    {
      "emissiveFactor": [
        1.0,
        1.0,
        1.0
      ],
      "emissiveTexture": {
        "index": 1,
        "texCoord": 1
      },
      "name": "hc_2floor_room025_DiffuseMap",
      "pbrMetallicRoughness": {
        "baseColorFactor": [
          0.588,
          0.588,
          0.588,
          1.0
        ],
        "baseColorTexture": {
          "index": 0
        },
        "metallicFactor": 0.0
      }
    },
    {
      "emissiveFactor": [
        1.0,
        1.0,
        1.0
      ],
      "emissiveTexture": {
        "index": 3
      },
      "name": "hc_2floor_room029_DiffuseMap",
      "pbrMetallicRoughness": {
        "baseColorFactor": [
          0.588,
          0.588,
          0.588,
          1.0
        ],
        "baseColorTexture": {
          "index": 2
        },
        "metallicFactor": 0.0
      }
    }
  ],
  "meshes": [
    {
      "name": "Object_0",
      "primitives": [
        {
          "attributes": {
            "NORMAL": 1,
            "POSITION": 0,
            "TEXCOORD_0": 2,
            "TEXCOORD_1": 3,
            "TEXCOORD_2": 4
          },
          "indices": 5,
          "material": 0,
          "mode": 4
        }
      ]
    },
    {
      "name": "Object_1",
      "primitives": [
        {
          "attributes": {
            "NORMAL": 7,
            "POSITION": 6,
            "TEXCOORD_0": 8,
            "TEXCOORD_1": 9,
            "TEXCOORD_2": 10
          },
          "indices": 11,
          "material": 1,
          "mode": 4
        }
      ]
    }
  ],
  "nodes": [
    {
      "children": [
        1
      ],
      "matrix": [
        1.0,
        0.0,
        0.0,
        0.0,
        0.0,
        2.220446049250313e-16,
        -1.0,
        0.0,
        0.0,
        1.0,
        2.220446049250313e-16,
        0.0,
        0.0,
        0.0,
        0.0,
        1.0
      ],
      "name": "Sketchfab_model"
    },
    {
      "children": [
        2
      ],
      "name": "root"
    },
    {
      "children": [
        3
      ],
      "matrix": [
        1.0,
        0.0,
        0.0,
        0.0,
        0.0,
        2.220446049250313e-16,
        1.0,
        0.0,
        0.0,
        -1.0,
        2.220446049250313e-16,
        0.0,
        0.0,
        0.0,
        0.0,
        1.0
      ],
      "name": "GLTF_SceneRootNode"
    },
    {
      "children": [
        4,
        6
      ],
      "matrix": [
        0.0,
        0.0,
        0.0393701009452343,
        0.0,
        -0.0393701009452343,
        0.0,
        0.0,
        0.0,
        0.0,
        -0.0393701009452343,
        0.0,
        0.0,
        -2.523623466491699,
        0.04724407568573952,
        -1.2992134094238281,
        1.0
      ],
      "name": "HC_201 (1)_0"
    },
    {
      "children": [
        5
      ],
      "matrix": [
        1.0,
        0.0,
        0.0,
        0.0,
        0.0,
        1.0,
        0.0,
        0.0,
        0.0,
        0.0,
        1.0,
        0.0,
        37.85404586791992,
        -65.88737487792969,
        -14.983731269836426,
        1.0
      ],
      "name": "hc_2floor_room025_1"
    },
    {
      "mesh": 0,
      "name": "Object_5"
    },
    {
      "children": [
        7
      ],
      "matrix": [
        1.0,
        0.0,
        0.0,
        0.0,
        0.0,
        1.0,
        0.0,
        0.0,
        0.0,
        0.0,
        1.0,
        0.0,
        44.01300811767578,
        -69.69737243652344,
        -14.264128684997559,
        1.0
      ],
      "name": "hc_2floor_room029_2"
    },
    {
      "mesh": 1,
      "name": "Object_7"
    }
  ],
  "samplers": [
    {
      "magFilter": 9729,
      "minFilter": 9729,
      "wrapS": 10497,
      "wrapT": 10497
    }
  ],
  "scene": 0,
  "scenes": [
    {
      "name": "Sketchfab_Scene",
      "nodes": [
        0
      ]
    }
  ],
  "textures": [
    {
      "sampler": 0,
      "source": 0
    },
    {
      "sampler": 0,
      "source": 1
    },
    {
      "sampler": 0,
      "source": 2
    },
    {
      "sampler": 0,
      "source": 3
    }
  ]
}
