{
  "accessors": [
    {
      "bufferView": 2,
      "componentType": 5126,
      "count": 1470,
      "max": [
        0.0006632626755163074,
        0.00209534983150661,
        0.0006995314615778625
      ],
      "min": [
        -0.0008520545670762658,
        0.00019253636128269136,
        -0.0009111990220844746
      ],
      "type": "VEC3"
    },
    {
      "bufferView": 2,
      "byteOffset": 17640,
      "componentType": 5126,
      "count": 1470,
      "max": [
        1.0,
        1.0,
        1.0
      ],
      "min": [
        -1.0,
        -1.0,
        -1.0
      ],
      "type": "VEC3"
    },
    {
      "bufferView": 1,
      "componentType": 5126,
      "count": 1470,
      "max": [
        0.9990000128746033,
        0.9969046711921692
      ],
      "min": [
        0.0010000000474974513,
        0.0010000000474974513
      ],
      "type": "VEC2"
    },
    {
      "bufferView": 0,
      "componentType": 5125,
      "count": 3144,
      "type": "SCALAR"
    }
  ],
  "asset": {
    "extras": {
      "author": "ningss (https://sketchfab.com/ningss)",
      "license": "CC-BY-4.0 (http://creativecommons.org/licenses/by/4.0/)",
      "source": "https://sketchfab.com/3d-models/x1309-bc0874614ace40488d5555630d57beb7",
      "title": "X1309"
    },
    "generator": "Sketchfab-14.32.1",
    "version": "2.0"
  },
  "bufferViews": [
    {
      "buffer": 0,
      "byteLength": 12576,
      "name": "floatBufferViews",
      "target": 34963
    },
    {
      "buffer": 0,
      "byteLength": 11760,
      "byteOffset": 12576,
      "byteStride": 8,
      "name": "floatBufferViews",
      "target": 34962
    },
    {
      "buffer": 0,
      "byteLength": 35280,
      "byteOffset": 24336,
      "byteStride": 12,
      "name": "floatBufferViews",
      "target": 34962
    }
  ],
  "buffers": [
    {
      "byteLength": 59616,
      "uri": "scene.bin"
    }
  ],
  "images": [
    {
      "uri": "textures/Material_375_baseColor.jpeg"
    }
  ],
  "materials": [
    {
      "name": "Material_375",
      "pbrMetallicRoughness": {
        "baseColorTexture": {
          "index": 0
        },
        "metallicFactor": 0.0,
        "roughnessFactor": 0.858579
      }
    }
  ],
  "meshes": [
    {
      "name": "Object_0",
      "primitives": [
        {
          "attributes": {
            "NORMAL": 1,
            "POSITION": 0,
            "TEXCOORD_0": 2
          },
          "indices": 3,
          "material": 0,
          "mode": 4
        }
      ]
    }
  ],
  "nodes": [
    {
      "children": [
        1
      ],
      "matrix": [
        1.0,
        0.0,
        0.0,
        0.0,
        0.0,
        2.220446049250313e-16,
        -1.0,
        0.0,
        0.0,
        1.0,
        2.220446049250313e-16,
        0.0,
        0.0,
        0.0,
        0.0,
        1.0
      ],
      "name": "Sketchfab_model"
    },
    {
      "children": [
        2
      ],
      "name": "root"
    },
    {
      "children": [
        3
      ],
      "matrix": [
        1.0,
        0.0,
        0.0,
        0.0,
        0.0,
        2.220446049250313e-16,
        1.0,
        0.0,
        0.0,
        -1.0,
        2.220446049250313e-16,
        0.0,
        0.0,
        0.0,
        0.0,
        1.0
      ],
      "name": "GLTF_SceneRootNode"
    },
    {
      "children": [
        4
      ],
      "matrix": [
        -80.0,
        0.0,
        0.0,
        0.0,
        0.0,
        80.0,
        0.0,
        0.0,
        0.0,
        0.0,
        -80.0,
        0.0,
        0.0,
        0.0,
        0.0,
        1.0
      ],
      "name": "X1309_0"
    },
    {
      "children": [
        5
      ],
      "matrix": [
        1.0,
        0.0,
        0.0,
        0.0,
        0.0,
        0.9999999999999867,
        -1.6292068494294545e-07,
        0.0,
        0.0,
        1.6292068494294545e-07,
        0.9999999999999867,
        0.0,
        -0.00019407035142648965,
        0.0,
        -0.00288874888792634,
        1.0
      ],
      "name": "waike_3"
    },
    {
      "children": [
        6
      ],
      "matrix": [
        7.904500961303711,
        0.0,
        0.0,
        0.0,
        0.0,
        4.37640380859375,
        0.0,
        0.0,
        0.0,
        0.0,
        7.904500961303711,
        0.0,
        0.00019407035142648965,
        -4.768371808516747e-10,
        0.00288874888792634,
        1.0
      ],
      "name": "polySurface3_4"
    },
    {
      "mesh": 0,
      "name": "Object_6"
    }
  ],
  "samplers": [
    {
      "magFilter": 9729,
      "minFilter": 9729,
      "wrapS": 10497,
      "wrapT": 10497
    }
  ],
  "scene": 0,
  "scenes": [
    {
      "name": "Sketchfab_Scene",
      "nodes": [
        0
      ]
    }
  ],
  "textures": [
    {
      "sampler": 0,
      "source": 0
    }
  ]
}
