{
  "accessors": [
    {
      "bufferView": 2,
      "componentType": 5126,
      "count": 347,
      "max": [
        3.0501561164855957,
        4.875,
        2.625006914138794
      ],
      "min": [
        -3.0501561164855957,
        -4.875,
        -2.625006914138794
      ],
      "type": "VEC3"
    },
    {
      "bufferView": 2,
      "byteOffset": 4164,
      "componentType": 5126,
      "count": 347,
      "max": [
        1.0,
        1.0,
        1.0
      ],
      "min": [
        -1.0,
        -1.0,
        -1.0
      ],
      "type": "VEC3"
    },
    {
      "bufferView": 1,
      "componentType": 5126,
      "count": 347,
      "max": [
        0.956267237663269,
        0.9990000128746033
      ],
      "min": [
        0.0010000000474974513,
        0.0010000000474974513
      ],
      "type": "VEC2"
    },
    {
      "bufferView": 1,
      "byteOffset": 2776,
      "componentType": 5126,
      "count": 347,
      "max": [
        146470.21875,
        66054.25
      ],
      "min": [
        -1727.234375,
        -460.654296875
      ],
      "type": "VEC2"
    },
    {
      "bufferView": 1,
      "byteOffset": 5552,
      "componentType": 5126,
      "count": 347,
      "max": [
        0.956267237663269,
        0.9990000128746033
      ],
      "min": [
        0.0010000000474974513,
        0.0010000000474974513
      ],
      "type": "VEC2"
    },
    {
      "bufferView": 0,
      "componentType": 5125,
      "count": 579,
      "type": "SCALAR"
    }
  ],
  "asset": {
    "extras": {
      "author": "1159929061 (https://sketchfab.com/1159929061)",
      "license": "CC-BY-4.0 (http://creativecommons.org/licenses/by/4.0/)",
      "source": "https://sketchfab.com/3d-models/hc-106-a6debad770b54b979422836fcb8f8ccd",
      "title": "hc_106"
    },
    "generator": "Sketchfab-13.83.0",
    "version": "2.0"
  },
  "bufferViews": [
    {
      "buffer": 0,
      "byteLength": 2316,
      "name": "floatBufferViews",
      "target": 34963
    },
    {
      "buffer": 0,
      "byteLength": 8328,
      "byteOffset": 2316,
      "byteStride": 8,
      "name": "floatBufferViews",
      "target": 34962
    },
    {
      "buffer": 0,
      "byteLength": 8328,
      "byteOffset": 10644,
      "byteStride": 12,
      "name": "floatBufferViews",
      "target": 34962
    }
  ],
  "buffers": [
    {
      "byteLength": 18972,
      "uri": "scene.bin"
    }
  ],
  "images": [
    {
      "uri": "textures/hc_1floor_room026_DiffuseMap_baseColor.jpeg"
    },
    {
      "uri": "textures/hc_1floor_room026_DiffuseMap_emissive.jpeg"
    }
  ],
  "materials": [
    {
      "emissiveFactor": [
        1.0,
        1.0,
        1.0
      ],
      "emissiveTexture": {
        "index": 1
      },
      "name": "hc_1floor_room026_DiffuseMap",
      "pbrMetallicRoughness": {
        "baseColorFactor": [
          0.588,
          0.588,
          0.588,
          1.0
        ],
        "baseColorTexture": {
          "index": 0
        },
        "metallicFactor": 0.0
      }
    }
  ],
  "meshes": [
    {
      "name": "Object_0",
      "primitives": [
        {
          "attributes": {
            "NORMAL": 1,
            "POSITION": 0,
            "TEXCOORD_0": 2,
            "TEXCOORD_1": 3,
            "TEXCOORD_2": 4
          },
          "indices": 5,
          "material": 0,
          "mode": 4
        }
      ]
    }
  ],
  "nodes": [
    {
      "children": [
        1
      ],
      "matrix": [
        1.0,
        0.0,
        0.0,
        0.0,
        0.0,
        2.220446049250313e-16,
        -1.0,
        0.0,
        0.0,
        1.0,
        2.220446049250313e-16,
        0.0,
        0.0,
        0.0,
        0.0,
        1.0
      ],
      "name": "Sketchfab_model"
    },
    {
      "children": [
        2
      ],
      "name": "root"
    },
    {
      "children": [
        3
      ],
      "matrix": [
        1.0,
        0.0,
        0.0,
        0.0,
        0.0,
        2.220446049250313e-16,
        1.0,
        0.0,
        0.0,
        -1.0,
        2.220446049250313e-16,
        0.0,
        0.0,
        0.0,
        0.0,
        1.0
      ],
      "name": "GLTF_SceneRootNode"
    },
    {
      "children": [
        4
      ],
      "matrix": [
        0.0,
        0.0,
        0.10000000149011612,
        0.0,
        -0.10000000149011612,
        0.0,
        0.0,
        0.0,
        0.0,
        -0.10000000149011612,
        0.0,
        0.0,
        0.0,
        0.0,
        0.0,
        1.0
      ],
      "name": "HC-106 (1)_0"
    },
    {
      "children": [
        5
      ],
      "name": "hc_1floor_room026_1"
    },
    {
      "mesh": 0,
      "name": "Object_5"
    }
  ],
  "samplers": [
    {
      "magFilter": 9729,
      "minFilter": 9729,
      "wrapS": 10497,
      "wrapT": 10497
    }
  ],
  "scene": 0,
  "scenes": [
    {
      "name": "Sketchfab_Scene",
      "nodes": [
        0
      ]
    }
  ],
  "textures": [
    {
      "sampler": 0,
      "source": 0
    },
    {
      "sampler": 0,
      "source": 1
    }
  ]
}
