{
  "accessors": [
    {
      "bufferView": 2,
      "componentType": 5126,
      "count": 818,
      "max": [
        6.191249847412109,
        6.477021217346191,
        0.7170740365982056
      ],
      "min": [
        -6.191249847412109,
        -6.477021217346191,
        -11.838204383850098
      ],
      "type": "VEC3"
    },
    {
      "bufferView": 2,
      "byteOffset": 9816,
      "componentType": 5126,
      "count": 818,
      "max": [
        1.0,
        1.0,
        1.0
      ],
      "min": [
        -1.0,
        -1.0,
        -1.0
      ],
      "type": "VEC3"
    },
    {
      "bufferView": 1,
      "componentType": 5126,
      "count": 818,
      "max": [
        0.9990000128746033,
        0.9950793981552124
      ],
      "min": [
        0.0010000000474974513,
        0.0010000000474974513
      ],
      "type": "VEC2"
    },
    {
      "bufferView": 1,
      "byteOffset": 6544,
      "componentType": 5126,
      "count": 818,
      "max": [
        0.9990000128746033,
        0.9950793981552124
      ],
      "min": [
        0.0010000000474974513,
        0.0010000000474974513
      ],
      "type": "VEC2"
    },
    {
      "bufferView": 1,
      "byteOffset": 13088,
      "componentType": 5126,
      "count": 818,
      "max": [
        0.9990000128746033,
        0.9950793981552124
      ],
      "min": [
        0.0010000000474974513,
        0.0010000000474974513
      ],
      "type": "VEC2"
    },
    {
      "bufferView": 0,
      "componentType": 5125,
      "count": 1503,
      "type": "SCALAR"
    },
    {
      "bufferView": 2,
      "byteOffset": 19632,
      "componentType": 5126,
      "count": 412,
      "max": [
        6.272411346435547,
        11.811159133911133,
        0.06842683255672455
      ],
      "min": [
        -6.272409915924072,
        -11.811161041259766,
        -9.964544296264648
      ],
      "type": "VEC3"
    },
    {
      "bufferView": 2,
      "byteOffset": 24576,
      "componentType": 5126,
      "count": 412,
      "max": [
        1.0,
        1.0,
        1.0
      ],
      "min": [
        -1.0,
        -1.0,
        -1.0
      ],
      "type": "VEC3"
    },
    {
      "bufferView": 1,
      "byteOffset": 19632,
      "componentType": 5126,
      "count": 412,
      "max": [
        0.9802027940750122,
        0.9990000128746033
      ],
      "min": [
        0.0010000000474974513,
        0.0010000000474974513
      ],
      "type": "VEC2"
    },
    {
      "bufferView": 1,
      "byteOffset": 22928,
      "componentType": 5126,
      "count": 412,
      "max": [
        0.9802027940750122,
        0.9990000128746033
      ],
      "min": [
        0.0010000000474974513,
        0.0010000000474974513
      ],
      "type": "VEC2"
    },
    {
      "bufferView": 1,
      "byteOffset": 26224,
      "componentType": 5126,
      "count": 412,
      "max": [
        0.9802027940750122,
        0.9990000128746033
      ],
      "min": [
        0.0010000000474974513,
        0.0010000000474974513
      ],
      "type": "VEC2"
    },
    {
      "bufferView": 0,
      "byteOffset": 6012,
      "componentType": 5125,
      "count": 720,
      "type": "SCALAR"
    },
    {
      "bufferView": 2,
      "byteOffset": 29520,
      "componentType": 5126,
      "count": 772,
      "max": [
        6.197598934173584,
        6.477055549621582,
        0.009351367130875587
      ],
      "min": [
        -6.197600364685059,
        -6.477054595947266,
        -12.464786529541016
      ],
      "type": "VEC3"
    },
    {
      "bufferView": 2,
      "byteOffset": 38784,
      "componentType": 5126,
      "count": 772,
      "max": [
        1.0,
        1.0,
        1.0
      ],
      "min": [
        -1.0,
        -1.0,
        -1.0
      ],
      "type": "VEC3"
    },
    {
      "bufferView": 1,
      "byteOffset": 29520,
      "componentType": 5126,
      "count": 772,
      "max": [
        0.9990000128746033,
        0.9990000128746033
      ],
      "min": [
        0.0010000000474974513,
        0.0010000000474974513
      ],
      "type": "VEC2"
    },
    {
      "bufferView": 1,
      "byteOffset": 35696,
      "componentType": 5126,
      "count": 772,
      "max": [
        0.9990000128746033,
        0.9990000128746033
      ],
      "min": [
        0.0010000000474974513,
        0.0010000000474974513
      ],
      "type": "VEC2"
    },
    {
      "bufferView": 1,
      "byteOffset": 41872,
      "componentType": 5126,
      "count": 772,
      "max": [
        0.9990000128746033,
        0.9990000128746033
      ],
      "min": [
        0.0010000000474974513,
        0.0010000000474974513
      ],
      "type": "VEC2"
    },
    {
      "bufferView": 0,
      "byteOffset": 8892,
      "componentType": 5125,
      "count": 1425,
      "type": "SCALAR"
    }
  ],
  "asset": {
    "extras": {
      "author": "1159929061 (https://sketchfab.com/1159929061)",
      "license": "CC-BY-4.0 (http://creativecommons.org/licenses/by/4.0/)",
      "source": "https://sketchfab.com/3d-models/hc-202-48d5140e185748be82a51fbf3081a317",
      "title": "hc_202"
    },
    "generator": "Sketchfab-14.1.2",
    "version": "2.0"
  },
  "bufferViews": [
    {
      "buffer": 0,
      "byteLength": 14592,
      "name": "floatBufferViews",
      "target": 34963
    },
    {
      "buffer": 0,
      "byteLength": 48048,
      "byteOffset": 14592,
      "byteStride": 8,
      "name": "floatBufferViews",
      "target": 34962
    },
    {
      "buffer": 0,
      "byteLength": 48048,
      "byteOffset": 62640,
      "byteStride": 12,
      "name": "floatBufferViews",
      "target": 34962
    }
  ],
  "buffers": [
    {
      "byteLength": 110688,
      "uri": "scene.bin"
    }
  ],
  "images": [
    {
      "uri": "textures/hc_2floor_room001_DiffuseMap_baseColor.jpeg"
    },
    {
      "uri": "textures/hc_2floor_room001_DiffuseMap_emissive.jpeg"
    },
    {
      "uri": "textures/hc_2floor_room023_DiffuseMap_baseColor.jpeg"
    },
    {
      "uri": "textures/hc_2floor_room023_DiffuseMap_emissive.jpeg"
    },
    {
      "uri": "textures/hc_2floor_room024_DiffuseMap_baseColor.jpeg"
    },
    {
      "uri": "textures/hc_2floor_room024_DiffuseMap_emissive.jpeg"
    }
  ],
  "materials": [
    {
      "emissiveFactor": [
        1.0,
        1.0,
        1.0
      ],
      "emissiveTexture": {
        "index": 1,
        "texCoord": 1
      },
      "name": "hc_2floor_room001_DiffuseMap",
      "pbrMetallicRoughness": {
        "baseColorFactor": [
          0.588,
          0.588,
          0.588,
          1.0
        ],
        "baseColorTexture": {
          "index": 0
        },
        "metallicFactor": 0.0
      }
    },
    {
      "emissiveFactor": [
        1.0,
        1.0,
        1.0
      ],
      "emissiveTexture": {
        "index": 3
      },
      "name": "hc_2floor_room023_DiffuseMap",
      "pbrMetallicRoughness": {
        "baseColorFactor": [
          0.588,
          0.588,
          0.588,
          1.0
        ],
        "baseColorTexture": {
          "index": 2
        },
        "metallicFactor": 0.0
      }
    },
    {
      "emissiveFactor": [
        1.0,
        1.0,
        1.0
      ],
      "emissiveTexture": {
        "index": 5,
        "texCoord": 1
      },
      "name": "hc_2floor_room024_DiffuseMap",
      "pbrMetallicRoughness": {
        "baseColorFactor": [
          0.588,
          0.588,
          0.588,
          1.0
        ],
        "baseColorTexture": {
          "index": 4
        },
        "metallicFactor": 0.0
      }
    }
  ],
  "meshes": [
    {
      "name": "Object_0",
      "primitives": [
        {
          "attributes": {
            "NORMAL": 1,
            "POSITION": 0,
            "TEXCOORD_0": 2,
            "TEXCOORD_1": 3,
            "TEXCOORD_2": 4
          },
          "indices": 5,
          "material": 0,
          "mode": 4
        }
      ]
    },
    {
      "name": "Object_1",
      "primitives": [
        {
          "attributes": {
            "NORMAL": 7,
            "POSITION": 6,
            "TEXCOORD_0": 8,
            "TEXCOORD_1": 9,
            "TEXCOORD_2": 10
          },
          "indices": 11,
          "material": 1,
          "mode": 4
        }
      ]
    },
    {
      "name": "Object_2",
      "primitives": [
        {
          "attributes": {
            "NORMAL": 13,
            "POSITION": 12,
            "TEXCOORD_0": 14,
            "TEXCOORD_1": 15,
            "TEXCOORD_2": 16
          },
          "indices": 17,
          "material": 2,
          "mode": 4
        }
      ]
    }
  ],
  "nodes": [
    {
      "children": [
        1
      ],
      "matrix": [
        1.0,
        0.0,
        0.0,
        0.0,
        0.0,
        2.220446049250313e-16,
        -1.0,
        0.0,
        0.0,
        1.0,
        2.220446049250313e-16,
        0.0,
        0.0,
        0.0,
        0.0,
        1.0
      ],
      "name": "Sketchfab_model"
    },
    {
      "children": [
        2
      ],
      "name": "root"
    },
    {
      "children": [
        3
      ],
      "matrix": [
        1.0,
        0.0,
        0.0,
        0.0,
        0.0,
        2.220446049250313e-16,
        1.0,
        0.0,
        0.0,
        -1.0,
        2.220446049250313e-16,
        0.0,
        0.0,
        0.0,
        0.0,
        1.0
      ],
      "name": "GLTF_SceneRootNode"
    },
    {
      "children": [
        4,
        6,
        8
      ],
      "matrix": [
        0.0,
        0.0,
        0.0393701009452343,
        0.0,
        -0.0393701009452343,
        0.0,
        0.0,
        0.0,
        0.0,
        -0.0393701009452343,
        0.0,
        0.0,
        -1.807087779045105,
        0.0,
        -1.2992132902145386,
        1.0
      ],
      "name": "HC_202 (1)_0"
    },
    {
      "children": [
        5
      ],
      "matrix": [
        1.0,
        0.0,
        0.0,
        0.0,
        0.0,
        1.0,
        0.0,
        0.0,
        0.0,
        0.0,
        1.0,
        0.0,
        44.268821716308594,
        -52.0443000793457,
        -15.021121978759766,
        1.0
      ],
      "name": "hc_2floor_room001_1"
    },
    {
      "mesh": 0,
      "name": "Object_5"
    },
    {
      "children": [
        7
      ],
      "matrix": [
        1.0,
        0.0,
        0.0,
        0.0,
        0.0,
        1.0,
        0.0,
        0.0,
        0.0,
        0.0,
        1.0,
        0.0,
        32.02384567260742,
        -45.94841003417969,
        -14.989785194396973,
        1.0
      ],
      "name": "hc_2floor_room023_2"
    },
    {
      "mesh": 1,
      "name": "Object_7"
    },
    {
      "children": [
        9
      ],
      "matrix": [
        1.0,
        0.0,
        0.0,
        0.0,
        0.0,
        1.0,
        0.0,
        0.0,
        0.0,
        0.0,
        1.0,
        0.0,
        44.26247024536133,
        -40.61430358886719,
        -14.394651412963867,
        1.0
      ],
      "name": "hc_2floor_room024_3"
    },
    {
      "mesh": 2,
      "name": "Object_9"
    }
  ],
  "samplers": [
    {
      "magFilter": 9729,
      "minFilter": 9729,
      "wrapS": 10497,
      "wrapT": 10497
    }
  ],
  "scene": 0,
  "scenes": [
    {
      "name": "Sketchfab_Scene",
      "nodes": [
        0
      ]
    }
  ],
  "textures": [
    {
      "sampler": 0,
      "source": 0
    },
    {
      "sampler": 0,
      "source": 1
    },
    {
      "sampler": 0,
      "source": 2
    },
    {
      "sampler": 0,
      "source": 3
    },
    {
      "sampler": 0,
      "source": 4
    },
    {
      "sampler": 0,
      "source": 5
    }
  ]
}
