{
  "accessors": [
    {
      "bufferView": 2,
      "componentType": 5126,
      "count": 920,
      "max": [
        0.4440862536430359,
        0.15694396197795868,
        0.472119003534317
      ],
      "min": [
        -0.44408655166625977,
        0.003737563965842128,
        -0.4721188545227051
      ],
      "type": "VEC3"
    },
    {
      "bufferView": 2,
      "byteOffset": 11040,
      "componentType": 5126,
      "count": 920,
      "max": [
        0.8725056648254395,
        1.0,
        0.8806595206260681
      ],
      "min": [
        -0.8690663576126099,
        -1.0,
        -0.8715689778327942
      ],
      "type": "VEC3"
    },
    {
      "bufferView": 1,
      "componentType": 5126,
      "count": 920,
      "max": [
        0.9898699522018433,
        0.9990000128746033
      ],
      "min": [
        0.0010000000474974513,
        0.0010000000474974513
      ],
      "type": "VEC2"
    },
    {
      "bufferView": 1,
      "byteOffset": 7360,
      "componentType": 5126,
      "count": 920,
      "max": [
        0.9898699522018433,
        0.9990000128746033
      ],
      "min": [
        0.0010000000474974513,
        0.0010000000474974513
      ],
      "type": "VEC2"
    },
    {
      "bufferView": 0,
      "componentType": 5125,
      "count": 1770,
      "type": "SCALAR"
    },
    {
      "bufferView": 2,
      "byteOffset": 22080,
      "componentType": 5126,
      "count": 28,
      "max": [
        0.5337631702423096,
        0.15320375561714172,
        0.5593305230140686
      ],
      "min": [
        -0.508327066898346,
        -8.096766919152287e-07,
        -0.5593368411064148
      ],
      "type": "VEC3"
    },
    {
      "bufferView": 2,
      "byteOffset": 22416,
      "componentType": 5126,
      "count": 28,
      "max": [
        0.9969820380210876,
        4.276980234863004e-06,
        0.8500415682792664
      ],
      "min": [
        -0.8660234808921814,
        -0.00011651912791421637,
        -0.8787646889686584
      ],
      "type": "VEC3"
    },
    {
      "bufferView": 1,
      "byteOffset": 14720,
      "componentType": 5126,
      "count": 28,
      "max": [
        0.3260853588581085,
        0.9980079531669617
      ],
      "min": [
        0.0006508692167699337,
        0.0019920319318771362
      ],
      "type": "VEC2"
    },
    {
      "bufferView": 0,
      "byteOffset": 7080,
      "componentType": 5125,
      "count": 48,
      "type": "SCALAR"
    },
    {
      "bufferView": 2,
      "byteOffset": 22752,
      "componentType": 5126,
      "count": 96,
      "max": [
        0.1770210862159729,
        0.1532025933265686,
        0.15916991233825684
      ],
      "min": [
        -0.17702104151248932,
        8.336246359874622e-09,
        -0.15916991233825684
      ],
      "type": "VEC3"
    },
    {
      "bufferView": 2,
      "byteOffset": 23904,
      "componentType": 5126,
      "count": 96,
      "max": [
        0.8660524487495422,
        1.0,
        0.8662651777267456
      ],
      "min": [
        -0.8667081594467163,
        -1.0,
        -0.8661510944366455
      ],
      "type": "VEC3"
    },
    {
      "bufferView": 1,
      "byteOffset": 14944,
      "componentType": 5126,
      "count": 96,
      "max": [
        0.9921309351921082,
        0.9990000128746033
      ],
      "min": [
        0.0010000000474974513,
        0.0010000000474974513
      ],
      "type": "VEC2"
    },
    {
      "bufferView": 1,
      "byteOffset": 15712,
      "componentType": 5126,
      "count": 96,
      "max": [
        0.9921309351921082,
        0.9990000128746033
      ],
      "min": [
        0.0010000000474974513,
        0.0010000000474974513
      ],
      "type": "VEC2"
    },
    {
      "bufferView": 0,
      "byteOffset": 7272,
      "componentType": 5125,
      "count": 168,
      "type": "SCALAR"
    },
    {
      "bufferView": 2,
      "byteOffset": 25056,
      "componentType": 5126,
      "count": 76,
      "max": [
        0.10667909681797028,
        0.15320263803005219,
        0.1292155683040619
      ],
      "min": [
        -0.1066790521144867,
        -2.3082842304233964e-08,
        -0.12921543419361115
      ],
      "type": "VEC3"
    },
    {
      "bufferView": 2,
      "byteOffset": 25968,
      "componentType": 5126,
      "count": 76,
      "max": [
        0.8664673566818237,
        1.0,
        0.8662187457084656
      ],
      "min": [
        -0.8664625883102417,
        -1.0,
        -0.8664843440055847
      ],
      "type": "VEC3"
    },
    {
      "bufferView": 1,
      "byteOffset": 16480,
      "componentType": 5126,
      "count": 76,
      "max": [
        0.9987576007843018,
        0.9990000128746033
      ],
      "min": [
        0.0010000000474974513,
        0.0010000000474974513
      ],
      "type": "VEC2"
    },
    {
      "bufferView": 1,
      "byteOffset": 17088,
      "componentType": 5126,
      "count": 76,
      "max": [
        0.9987576007843018,
        0.9990000128746033
      ],
      "min": [
        0.0010000000474974513,
        0.0010000000474974513
      ],
      "type": "VEC2"
    },
    {
      "bufferView": 0,
      "byteOffset": 7944,
      "componentType": 5125,
      "count": 138,
      "type": "SCALAR"
    },
    {
      "bufferView": 2,
      "byteOffset": 26880,
      "componentType": 5126,
      "count": 236,
      "max": [
        0.2527054250240326,
        0.15320944786071777,
        0.22644087672233582
      ],
      "min": [
        -0.25270548462867737,
        -7.105426934084528e-16,
        -0.22644050419330597
      ],
      "type": "VEC3"
    },
    {
      "bufferView": 2,
      "byteOffset": 29712,
      "componentType": 5126,
      "count": 236,
      "max": [
        0.8662632703781128,
        1.0,
        0.8664406538009644
      ],
      "min": [
        -0.8667404651641846,
        -1.0,
        -0.8665905594825745
      ],
      "type": "VEC3"
    },
    {
      "bufferView": 1,
      "byteOffset": 17696,
      "componentType": 5126,
      "count": 236,
      "max": [
        0.9805845022201538,
        0.9990000128746033
      ],
      "min": [
        0.0010000000474974513,
        0.0010000000474974513
      ],
      "type": "VEC2"
    },
    {
      "bufferView": 1,
      "byteOffset": 19584,
      "componentType": 5126,
      "count": 236,
      "max": [
        0.9805845022201538,
        0.9990000128746033
      ],
      "min": [
        0.0010000000474974513,
        0.0010000000474974513
      ],
      "type": "VEC2"
    },
    {
      "bufferView": 0,
      "byteOffset": 8496,
      "componentType": 5125,
      "count": 450,
      "type": "SCALAR"
    },
    {
      "bufferView": 2,
      "byteOffset": 32544,
      "componentType": 5126,
      "count": 252,
      "max": [
        0.23561091721057892,
        0.15320268273353577,
        0.28027185797691345
      ],
      "min": [
        -0.23561091721057892,
        -5.436823258264667e-08,
        -0.28027182817459106
      ],
      "type": "VEC3"
    },
    {
      "bufferView": 2,
      "byteOffset": 35568,
      "componentType": 5126,
      "count": 252,
      "max": [
        0.8697825074195862,
        1.0,
        0.8665676712989807
      ],
      "min": [
        -0.869783878326416,
        -1.0,
        -0.8671693801879883
      ],
      "type": "VEC3"
    },
    {
      "bufferView": 1,
      "byteOffset": 21472,
      "componentType": 5126,
      "count": 252,
      "max": [
        0.9990000128746033,
        0.9887463450431824
      ],
      "min": [
        0.0010000000474974513,
        0.0010000000474974513
      ],
      "type": "VEC2"
    },
    {
      "bufferView": 1,
      "byteOffset": 23488,
      "componentType": 5126,
      "count": 252,
      "max": [
        0.9990000128746033,
        0.9887463450431824
      ],
      "min": [
        0.0010000000474974513,
        0.0010000000474974513
      ],
      "type": "VEC2"
    },
    {
      "bufferView": 0,
      "byteOffset": 10296,
      "componentType": 5125,
      "count": 402,
      "type": "SCALAR"
    },
    {
      "bufferView": 2,
      "byteOffset": 38592,
      "componentType": 5126,
      "count": 16,
      "max": [
        0.2883259356021881,
        0.14794212579727173,
        0.33566150069236755
      ],
      "min": [
        -0.2883259654045105,
        0.017236175015568733,
        -0.33566147089004517
      ],
      "type": "VEC3"
    },
    {
      "bufferView": 2,
      "byteOffset": 38784,
      "componentType": 5126,
      "count": 16,
      "max": [
        0.8660888075828552,
        0.0,
        -0.4998902380466461
      ],
      "min": [
        -0.49986934661865234,
        -0.00019741893629543483,
        -0.8661007881164551
      ],
      "type": "VEC3"
    },
    {
      "bufferView": 1,
      "byteOffset": 25504,
      "componentType": 5126,
      "count": 16,
      "max": [
        0.82847660779953,
        0.8356897830963135
      ],
      "min": [
        0.15734757483005524,
        0.7514682412147522
      ],
      "type": "VEC2"
    },
    {
      "bufferView": 0,
      "byteOffset": 11904,
      "componentType": 5125,
      "count": 24,
      "type": "SCALAR"
    },
    {
      "bufferView": 2,
      "byteOffset": 38976,
      "componentType": 5126,
      "count": 4,
      "max": [
        0.12810955941677094,
        0.13970574736595154,
        -0.016521386802196503
      ],
      "min": [
        -0.2247461974620819,
        0.01349800918251276,
        -0.2203105092048645
      ],
      "type": "VEC3"
    },
    {
      "bufferView": 2,
      "byteOffset": 39024,
      "componentType": 5126,
      "count": 4,
      "max": [
        -0.5001779198646545,
        -0.0001979747466975823,
        -0.8659226298332214
      ],
      "min": [
        -0.5001780390739441,
        -0.00019797476124949753,
        -0.8659226298332214
      ],
      "type": "VEC3"
    },
    {
      "bufferView": 1,
      "byteOffset": 25632,
      "componentType": 5126,
      "count": 4,
      "max": [
        0.15509158372879028,
        0.9808870553970337
      ],
      "min": [
        0.0010000000474974513,
        0.5500727891921997
      ],
      "type": "VEC2"
    },
    {
      "bufferView": 0,
      "byteOffset": 12000,
      "componentType": 5125,
      "count": 6,
      "type": "SCALAR"
    }
  ],
  "asset": {
    "extras": {
      "author": "1159929061 (https://sketchfab.com/1159929061)",
      "license": "CC-BY-4.0 (http://creativecommons.org/licenses/by/4.0/)",
      "source": "https://sketchfab.com/3d-models/hd-5-e0b4df5e1af049d0893ed64f5f27b823",
      "title": "HD_5"
    },
    "generator": "Sketchfab-15.34.0",
    "version": "2.0"
  },
  "bufferViews": [
    {
      "buffer": 0,
      "byteLength": 12024,
      "name": "floatBufferViews",
      "target": 34963
    },
    {
      "buffer": 0,
      "byteLength": 25664,
      "byteOffset": 12024,
      "byteStride": 8,
      "name": "floatBufferViews",
      "target": 34962
    },
    {
      "buffer": 0,
      "byteLength": 39072,
      "byteOffset": 37688,
      "byteStride": 12,
      "name": "floatBufferViews",
      "target": 34962
    }
  ],
  "buffers": [
    {
      "byteLength": 76760,
      "uri": "scene.bin"
    }
  ],
  "images": [
    {
      "uri": "textures/hd_5_zoulangDiffuseMap_baseColor.jpeg"
    },
    {
      "uri": "textures/hd_5_zoulangDiffuseMap_emissive.png"
    },
    {
      "uri": "textures/hd_5floor_room01DiffuseMap_baseColor.jpeg"
    },
    {
      "uri": "textures/hd_5floor_room01DiffuseMap_emissive.png"
    },
    {
      "uri": "textures/hd_5floor_room02DiffuseMap_baseColor.jpeg"
    },
    {
      "uri": "textures/hd_5floor_room02DiffuseMap_emissive.png"
    },
    {
      "uri": "textures/hd_5floor_room03DiffuseMap_baseColor.jpeg"
    },
    {
      "uri": "textures/hd_5floor_room03DiffuseMap_emissive.png"
    },
    {
      "uri": "textures/hd_5floor_room04DiffuseMap_baseColor.jpeg"
    },
    {
      "uri": "textures/hd_5floor_room04DiffuseMap_emissive.png"
    }
  ],
  "materials": [
    {
      "emissiveFactor": [
        1.0,
        1.0,
        1.0
      ],
      "emissiveTexture": {
        "index": 1
      },
      "name": "hd_5_zoulangDiffuseMap",
      "pbrMetallicRoughness": {
        "baseColorTexture": {
          "index": 0
        },
        "metallicFactor": 0.0,
        "roughnessFactor": 0.858579
      }
    },
    {
      "name": "Material_15",
      "pbrMetallicRoughness": {
        "baseColorFactor": [
          0.5,
          0.5,
          0.5,
          1.0
        ],
        "metallicFactor": 0.0
      }
    },
    {
      "emissiveFactor": [
        1.0,
        1.0,
        1.0
      ],
      "emissiveTexture": {
        "index": 3
      },
      "name": "hd_5floor_room01DiffuseMap",
      "pbrMetallicRoughness": {
        "baseColorTexture": {
          "index": 2
        },
        "metallicFactor": 0.0,
        "roughnessFactor": 0.858579
      }
    },
    {
      "emissiveFactor": [
        1.0,
        1.0,
        1.0
      ],
      "emissiveTexture": {
        "index": 5
      },
      "name": "hd_5floor_room02DiffuseMap",
      "pbrMetallicRoughness": {
        "baseColorTexture": {
          "index": 4
        },
        "metallicFactor": 0.0,
        "roughnessFactor": 0.858579
      }
    },
    {
      "emissiveFactor": [
        1.0,
        1.0,
        1.0
      ],
      "emissiveTexture": {
        "index": 7
      },
      "name": "hd_5floor_room03DiffuseMap",
      "pbrMetallicRoughness": {
        "baseColorTexture": {
          "index": 6
        },
        "metallicFactor": 0.0,
        "roughnessFactor": 0.858579
      }
    },
    {
      "emissiveFactor": [
        1.0,
        1.0,
        1.0
      ],
      "emissiveTexture": {
        "index": 9
      },
      "name": "hd_5floor_room04DiffuseMap",
      "pbrMetallicRoughness": {
        "baseColorTexture": {
          "index": 8
        },
        "metallicFactor": 0.0,
        "roughnessFactor": 0.858579
      }
    },
    {
      "alphaMode": "BLEND",
      "name": "material",
      "pbrMetallicRoughness": {
        "baseColorFactor": [
          0.494118,
          0.717647,
          0.890196,
          0.3
        ],
        "metallicFactor": 0.0
      }
    }
  ],
  "meshes": [
    {
      "name": "Object_0",
      "primitives": [
        {
          "attributes": {
            "NORMAL": 1,
            "POSITION": 0,
            "TEXCOORD_0": 2,
            "TEXCOORD_1": 3
          },
          "indices": 4,
          "material": 0,
          "mode": 4
        }
      ]
    },
    {
      "name": "Object_1",
      "primitives": [
        {
          "attributes": {
            "NORMAL": 6,
            "POSITION": 5,
            "TEXCOORD_0": 7
          },
          "indices": 8,
          "material": 1,
          "mode": 4
        }
      ]
    },
    {
      "name": "Object_2",
      "primitives": [
        {
          "attributes": {
            "NORMAL": 10,
            "POSITION": 9,
            "TEXCOORD_0": 11,
            "TEXCOORD_1": 12
          },
          "indices": 13,
          "material": 2,
          "mode": 4
        }
      ]
    },
    {
      "name": "Object_3",
      "primitives": [
        {
          "attributes": {
            "NORMAL": 15,
            "POSITION": 14,
            "TEXCOORD_0": 16,
            "TEXCOORD_1": 17
          },
          "indices": 18,
          "material": 3,
          "mode": 4
        }
      ]
    },
    {
      "name": "Object_4",
      "primitives": [
        {
          "attributes": {
            "NORMAL": 20,
            "POSITION": 19,
            "TEXCOORD_0": 21,
            "TEXCOORD_1": 22
          },
          "indices": 23,
          "material": 4,
          "mode": 4
        }
      ]
    },
    {
      "name": "Object_5",
      "primitives": [
        {
          "attributes": {
            "NORMAL": 25,
            "POSITION": 24,
            "TEXCOORD_0": 26,
            "TEXCOORD_1": 27
          },
          "indices": 28,
          "material": 5,
          "mode": 4
        }
      ]
    },
    {
      "name": "Object_6",
      "primitives": [
        {
          "attributes": {
            "NORMAL": 30,
            "POSITION": 29,
            "TEXCOORD_0": 31
          },
          "indices": 32,
          "material": 6,
          "mode": 4
        }
      ]
    },
    {
      "name": "Object_7",
      "primitives": [
        {
          "attributes": {
            "NORMAL": 34,
            "POSITION": 33,
            "TEXCOORD_0": 35
          },
          "indices": 36,
          "material": 6,
          "mode": 4
        }
      ]
    }
  ],
  "nodes": [
    {
      "children": [
        1
      ],
      "matrix": [
        1.0,
        0.0,
        0.0,
        0.0,
        0.0,
        2.220446049250313e-16,
        -1.0,
        0.0,
        0.0,
        1.0,
        2.220446049250313e-16,
        0.0,
        0.0,
        0.0,
        0.0,
        1.0
      ],
      "name": "Sketchfab_model"
    },
    {
      "children": [
        2
      ],
      "name": "root"
    },
    {
      "children": [
        3
      ],
      "matrix": [
        1.0,
        0.0,
        0.0,
        0.0,
        0.0,
        2.220446049250313e-16,
        1.0,
        0.0,
        0.0,
        -1.0,
        2.220446049250313e-16,
        0.0,
        0.0,
        0.0,
        0.0,
        1.0
      ],
      "name": "GLTF_SceneRootNode"
    },
    {
      "children": [
        4,
        6,
        8,
        10,
        12,
        14,
        16,
        18
      ],
      "matrix": [
        -2.0999999046325684,
        0.0,
        0.0,
        0.0,
        0.0,
        2.0999999046325684,
        0.0,
        0.0,
        0.0,
        0.0,
        -2.0999999046325684,
        0.0,
        -3.033383846282959,
        1.4817184209823608,
        1.048851728439331,
        1.0
      ],
      "name": "HD_5_0"
    },
    {
      "children": [
        5
      ],
      "matrix": [
        1.0,
        0.0,
        0.0,
        0.0,
        0.0,
        1.0,
        0.0,
        0.0,
        0.0,
        0.0,
        1.0,
        0.0,
        0.06518718600273132,
        -0.003739189123734832,
        -0.07460810989141464,
        1.0
      ],
      "name": "hd_5_zoulang_1"
    },
    {
      "mesh": 0,
      "name": "Object_5"
    },
    {
      "children": [
        7
      ],
      "matrix": [
        1.0,
        0.0,
        0.0,
        0.0,
        0.0,
        1.0,
        0.0,
        0.0,
        0.0,
        0.0,
        1.0,
        0.0,
        -0.015518035739660263,
        -0.0037386082112789154,
        0.0003183528606314212,
        1.0
      ],
      "name": "hd_5floor_wlm_2"
    },
    {
      "mesh": 1,
      "name": "Object_7"
    },
    {
      "children": [
        9
      ],
      "matrix": [
        1.0,
        0.0,
        0.0,
        0.0,
        0.0,
        1.0,
        0.0,
        0.0,
        0.0,
        0.0,
        1.0,
        0.0,
        0.06275469064712524,
        -1.5570493587802048e-06,
        0.003002616111189127,
        1.0
      ],
      "name": "hd_5floor_room01_3"
    },
    {
      "mesh": 2,
      "name": "Object_9"
    },
    {
      "children": [
        11
      ],
      "matrix": [
        1.0,
        0.0,
        0.0,
        0.0,
        0.0,
        1.0,
        0.0,
        0.0,
        0.0,
        0.0,
        1.0,
        0.0,
        -0.014154001139104366,
        -1.601924282113032e-06,
        -0.3340018093585968,
        1.0
      ],
      "name": "hd_5floor_room02_4"
    },
    {
      "mesh": 3,
      "name": "Object_11"
    },
    {
      "children": [
        13
      ],
      "matrix": [
        1.0,
        0.0,
        0.0,
        0.0,
        0.0,
        1.0,
        0.0,
        0.0,
        0.0,
        0.0,
        1.0,
        0.0,
        -0.25656795501708984,
        -1.6250071439571911e-06,
        -0.20052491128444672,
        1.0
      ],
      "name": "hd_5floor_room03_5"
    },
    {
      "mesh": 4,
      "name": "Object_13"
    },
    {
      "children": [
        15
      ],
      "matrix": [
        1.0,
        0.0,
        0.0,
        0.0,
        0.0,
        1.0,
        0.0,
        0.0,
        0.0,
        0.0,
        1.0,
        0.0,
        -0.09314792603254318,
        -1.5706389149272582e-06,
        0.26645514369010925,
        1.0
      ],
      "name": "hd_5floor_room04_6"
    },
    {
      "mesh": 5,
      "name": "Object_15"
    },
    {
      "children": [
        17
      ],
      "matrix": [
        1.0,
        0.0,
        0.0,
        0.0,
        0.0,
        1.0,
        0.0,
        0.0,
        0.0,
        0.0,
        1.0,
        0.0,
        0.16213831305503845,
        -0.0037394179962575436,
        -0.17383632063865662,
        1.0
      ],
      "name": "hd_5_zoulang_Window_7"
    },
    {
      "mesh": 6,
      "name": "Object_17"
    },
    {
      "children": [
        19
      ],
      "matrix": [
        1.0,
        0.0,
        0.0,
        0.0,
        0.0,
        1.0,
        0.0,
        0.0,
        0.0,
        0.0,
        1.0,
        0.0,
        -0.25656795501708984,
        0.0,
        -0.20052489638328552,
        1.0
      ],
      "name": "hd_5floor_room03_Window_8"
    },
    {
      "mesh": 7,
      "name": "Object_19"
    }
  ],
  "samplers": [
    {
      "magFilter": 9729,
      "minFilter": 9729,
      "wrapS": 10497,
      "wrapT": 10497
    }
  ],
  "scene": 0,
  "scenes": [
    {
      "name": "Sketchfab_Scene",
      "nodes": [
        0
      ]
    }
  ],
  "textures": [
    {
      "sampler": 0,
      "source": 0
    },
    {
      "sampler": 0,
      "source": 1
    },
    {
      "sampler": 0,
      "source": 2
    },
    {
      "sampler": 0,
      "source": 3
    },
    {
      "sampler": 0,
      "source": 4
    },
    {
      "sampler": 0,
      "source": 5
    },
    {
      "sampler": 0,
      "source": 6
    },
    {
      "sampler": 0,
      "source": 7
    },
    {
      "sampler": 0,
      "source": 8
    },
    {
      "sampler": 0,
      "source": 9
    }
  ]
}
