{
  "accessors": [
    {
      "bufferView": 2,
      "componentType": 5126,
      "count": 1036,
      "max": [
        3.519843578338623,
        1.9749999046325684,
        2.625002384185791
      ],
      "min": [
        -3.519843578338623,
        -1.9749999046325684,
        -2.625002384185791
      ],
      "type": "VEC3"
    },
    {
      "bufferView": 2,
      "byteOffset": 12432,
      "componentType": 5126,
      "count": 1036,
      "max": [
        1.0,
        1.0,
        1.0
      ],
      "min": [
        -1.0,
        -1.0,
        -1.0
      ],
      "type": "VEC3"
    },
    {
      "bufferView": 3,
      "componentType": 5126,
      "count": 1036,
      "max": [
        1.0,
        1.0,
        1.0,
        1.0
      ],
      "min": [
        1.0,
        1.0,
        1.0,
        1.0
      ],
      "type": "VEC4"
    },
    {
      "bufferView": 1,
      "componentType": 5126,
      "count": 1036,
      "max": [
        0.9990000128746033,
        0.9941928386688232
      ],
      "min": [
        0.0010000000474974513,
        0.0010000000474974513
      ],
      "type": "VEC2"
    },
    {
      "bufferView": 1,
      "byteOffset": 8288,
      "componentType": 5126,
      "count": 1036,
      "max": [
        145866.5,
        62735.625
      ],
      "min": [
        -2524.921875,
        -1189.7578125
      ],
      "type": "VEC2"
    },
    {
      "bufferView": 1,
      "byteOffset": 16576,
      "componentType": 5126,
      "count": 1036,
      "max": [
        0.9990000128746033,
        0.9941928386688232
      ],
      "min": [
        0.0010000000474974513,
        0.0010000000474974513
      ],
      "type": "VEC2"
    },
    {
      "bufferView": 0,
      "componentType": 5125,
      "count": 1920,
      "type": "SCALAR"
    },
    {
      "bufferView": 2,
      "byteOffset": 24864,
      "componentType": 5126,
      "count": 140,
      "max": [
        0.8004687428474426,
        1.5499109029769897,
        2.625002145767212
      ],
      "min": [
        -0.8004687428474426,
        -1.5499218702316284,
        -2.625002145767212
      ],
      "type": "VEC3"
    },
    {
      "bufferView": 2,
      "byteOffset": 26544,
      "componentType": 5126,
      "count": 140,
      "max": [
        1.0,
        1.0,
        1.0
      ],
      "min": [
        -1.0,
        -1.0,
        -1.0
      ],
      "type": "VEC3"
    },
    {
      "bufferView": 1,
      "byteOffset": 24864,
      "componentType": 5126,
      "count": 140,
      "max": [
        0.9990000128746033,
        0.9896926283836365
      ],
      "min": [
        0.0010000000474974513,
        0.0010000000474974513
      ],
      "type": "VEC2"
    },
    {
      "bufferView": 1,
      "byteOffset": 25984,
      "componentType": 5126,
      "count": 140,
      "max": [
        0.9990000128746033,
        0.9896926283836365
      ],
      "min": [
        0.0010000000474974513,
        0.0010000000474974513
      ],
      "type": "VEC2"
    },
    {
      "bufferView": 1,
      "byteOffset": 27104,
      "componentType": 5126,
      "count": 140,
      "max": [
        0.9990000128746033,
        0.9896926283836365
      ],
      "min": [
        0.0010000000474974513,
        0.0010000000474974513
      ],
      "type": "VEC2"
    },
    {
      "bufferView": 0,
      "byteOffset": 7680,
      "componentType": 5125,
      "count": 234,
      "type": "SCALAR"
    },
    {
      "bufferView": 2,
      "byteOffset": 28224,
      "componentType": 5126,
      "count": 1681,
      "max": [
        6.275624752044678,
        5.590077877044678,
        2.6250483989715576
      ],
      "min": [
        -6.275624752044678,
        -5.590077877044678,
        -2.625049352645874
      ],
      "type": "VEC3"
    },
    {
      "bufferView": 2,
      "byteOffset": 48396,
      "componentType": 5126,
      "count": 1681,
      "max": [
        1.0,
        1.0,
        1.0
      ],
      "min": [
        -1.0,
        -1.0,
        -1.0
      ],
      "type": "VEC3"
    },
    {
      "bufferView": 3,
      "byteOffset": 16576,
      "componentType": 5126,
      "count": 1681,
      "max": [
        1.0,
        1.0,
        1.0,
        1.0
      ],
      "min": [
        0.0,
        0.0,
        0.0,
        0.0
      ],
      "type": "VEC4"
    },
    {
      "bufferView": 1,
      "byteOffset": 28224,
      "componentType": 5126,
      "count": 1681,
      "max": [
        0.9990000128746033,
        0.9990000128746033
      ],
      "min": [
        0.0010000000474974513,
        0.0010000000474974513
      ],
      "type": "VEC2"
    },
    {
      "bufferView": 1,
      "byteOffset": 41672,
      "componentType": 5126,
      "count": 1681,
      "max": [
        145859.453125,
        63748.6484375
      ],
      "min": [
        -3039.25,
        -1189.7578125
      ],
      "type": "VEC2"
    },
    {
      "bufferView": 1,
      "byteOffset": 55120,
      "componentType": 5126,
      "count": 1681,
      "max": [
        0.9990000128746033,
        0.9990000128746033
      ],
      "min": [
        0.0010000000474974513,
        0.0010000000474974513
      ],
      "type": "VEC2"
    },
    {
      "bufferView": 0,
      "byteOffset": 8616,
      "componentType": 5125,
      "count": 3048,
      "type": "SCALAR"
    }
  ],
  "asset": {
    "extras": {
      "author": "ningss (https://sketchfab.com/ningss)",
      "license": "CC-BY-4.0 (http://creativecommons.org/licenses/by/4.0/)",
      "source": "https://sketchfab.com/3d-models/101-503728fd97d748ca8e9db7e9d16c18c9",
      "title": "101"
    },
    "generator": "Sketchfab-13.74.0",
    "version": "2.0"
  },
  "bufferViews": [
    {
      "buffer": 0,
      "byteLength": 20808,
      "name": "floatBufferViews",
      "target": 34963
    },
    {
      "buffer": 0,
      "byteLength": 68568,
      "byteOffset": 20808,
      "byteStride": 8,
      "name": "floatBufferViews",
      "target": 34962
    },
    {
      "buffer": 0,
      "byteLength": 68568,
      "byteOffset": 89376,
      "byteStride": 12,
      "name": "floatBufferViews",
      "target": 34962
    },
    {
      "buffer": 0,
      "byteLength": 43472,
      "byteOffset": 157944,
      "byteStride": 16,
      "name": "floatBufferViews",
      "target": 34962
    }
  ],
  "buffers": [
    {
      "byteLength": 201416,
      "uri": "scene.bin"
    }
  ],
  "images": [
    {
      "uri": "textures/hc_1floor_room024_DiffuseMap_baseColor.jpeg"
    },
    {
      "uri": "textures/hc_1floor_room024_DiffuseMap_emissive.jpeg"
    },
    {
      "uri": "textures/hc_1floor_room023_DiffuseMap_baseColor.jpeg"
    },
    {
      "uri": "textures/hc_1floor_room023_DiffuseMap_emissive.jpeg"
    },
    {
      "uri": "textures/hc_1floor_room022_DiffuseMap_baseColor.jpeg"
    },
    {
      "uri": "textures/hc_1floor_room022_DiffuseMap_emissive.jpeg"
    }
  ],
  "materials": [
    {
      "emissiveFactor": [
        1.0,
        1.0,
        1.0
      ],
      "emissiveTexture": {
        "index": 1
      },
      "name": "hc_1floor_room024_DiffuseMap",
      "pbrMetallicRoughness": {
        "baseColorFactor": [
          0.588,
          0.588,
          0.588,
          1.0
        ],
        "baseColorTexture": {
          "index": 0
        },
        "metallicFactor": 0.0
      }
    },
    {
      "emissiveFactor": [
        1.0,
        1.0,
        1.0
      ],
      "emissiveTexture": {
        "index": 3
      },
      "name": "hc_1floor_room023_DiffuseMap",
      "pbrMetallicRoughness": {
        "baseColorFactor": [
          0.588,
          0.588,
          0.588,
          1.0
        ],
        "baseColorTexture": {
          "index": 2
        },
        "metallicFactor": 0.0
      }
    },
    {
      "emissiveFactor": [
        1.0,
        1.0,
        1.0
      ],
      "emissiveTexture": {
        "index": 5
      },
      "name": "hc_1floor_room022_DiffuseMap",
      "pbrMetallicRoughness": {
        "baseColorFactor": [
          0.588,
          0.588,
          0.588,
          1.0
        ],
        "baseColorTexture": {
          "index": 4
        },
        "metallicFactor": 0.0
      }
    }
  ],
  "meshes": [
    {
      "name": "Object_0",
      "primitives": [
        {
          "attributes": {
            "COLOR_0": 2,
            "NORMAL": 1,
            "POSITION": 0,
            "TEXCOORD_0": 3,
            "TEXCOORD_1": 4,
            "TEXCOORD_2": 5
          },
          "indices": 6,
          "material": 0,
          "mode": 4
        }
      ]
    },
    {
      "name": "Object_1",
      "primitives": [
        {
          "attributes": {
            "NORMAL": 8,
            "POSITION": 7,
            "TEXCOORD_0": 9,
            "TEXCOORD_1": 10,
            "TEXCOORD_2": 11
          },
          "indices": 12,
          "material": 1,
          "mode": 4
        }
      ]
    },
    {
      "name": "Object_2",
      "primitives": [
        {
          "attributes": {
            "COLOR_0": 15,
            "NORMAL": 14,
            "POSITION": 13,
            "TEXCOORD_0": 16,
            "TEXCOORD_1": 17,
            "TEXCOORD_2": 18
          },
          "indices": 19,
          "material": 2,
          "mode": 4
        }
      ]
    }
  ],
  "nodes": [
    {
      "children": [
        1
      ],
      "matrix": [
        1.0,
        0.0,
        0.0,
        0.0,
        0.0,
        2.220446049250313e-16,
        -1.0,
        0.0,
        0.0,
        1.0,
        2.220446049250313e-16,
        0.0,
        0.0,
        0.0,
        0.0,
        1.0
      ],
      "name": "Sketchfab_model"
    },
    {
      "children": [
        2
      ],
      "name": "root"
    },
    {
      "children": [
        3
      ],
      "matrix": [
        1.0,
        0.0,
        0.0,
        0.0,
        0.0,
        2.220446049250313e-16,
        1.0,
        0.0,
        0.0,
        -1.0,
        2.220446049250313e-16,
        0.0,
        0.0,
        0.0,
        0.0,
        1.0
      ],
      "name": "GLTF_SceneRootNode"
    },
    {
      "children": [
        4,
        6,
        8
      ],
      "matrix": [
        0.08000000566244125,
        0.0,
        -0.0,
        0.0,
        0.0,
        -0.08000006526708603,
        0.0,
        0.0,
        0.0,
        0.0,
        -0.08000006526708603,
        0.0,
        1.358603835105896,
        1.2910003662109375,
        -1.1380000114440918,
        1.0
      ],
      "name": "101_0"
    },
    {
      "children": [
        5
      ],
      "matrix": [
        1.0,
        0.0,
        0.0,
        0.0,
        0.0,
        1.0,
        0.0,
        0.0,
        0.0,
        0.0,
        1.0,
        0.0,
        -2.8675012588500977,
        -16.08226776123047,
        0.0,
        1.0
      ],
      "name": "hc_1floor_room024_1"
    },
    {
      "mesh": 0,
      "name": "Object_5"
    },
    {
      "children": [
        7
      ],
      "matrix": [
        1.0,
        0.0,
        0.0,
        0.0,
        0.0,
        1.0,
        0.0,
        0.0,
        0.0,
        0.0,
        1.0,
        0.0,
        -5.475001335144043,
        -12.557345390319824,
        0.0,
        1.0
      ],
      "name": "hc_1floor_room023_2"
    },
    {
      "mesh": 1,
      "name": "Object_7"
    },
    {
      "children": [
        9
      ],
      "matrix": [
        1.0,
        0.0,
        0.0,
        0.0,
        0.0,
        1.0,
        0.0,
        0.0,
        0.0,
        0.0,
        1.0,
        0.0,
        0.0,
        -12.467188835144043,
        3.0994415283203125e-05,
        1.0
      ],
      "name": "hc_1floor_room022_3"
    },
    {
      "mesh": 2,
      "name": "Object_9"
    }
  ],
  "samplers": [
    {
      "magFilter": 9729,
      "minFilter": 9729,
      "wrapS": 10497,
      "wrapT": 10497
    }
  ],
  "scene": 0,
  "scenes": [
    {
      "name": "Sketchfab_Scene",
      "nodes": [
        0
      ]
    }
  ],
  "textures": [
    {
      "sampler": 0,
      "source": 0
    },
    {
      "sampler": 0,
      "source": 1
    },
    {
      "sampler": 0,
      "source": 2
    },
    {
      "sampler": 0,
      "source": 3
    },
    {
      "sampler": 0,
      "source": 4
    },
    {
      "sampler": 0,
      "source": 5
    }
  ]
}
